<?xml version="1.0" encoding="UTF-8"?>
<svg id="_レイヤー_1" data-name=" レイヤー 1" xmlns="http://www.w3.org/2000/svg" viewBox="0 0 26 26">
  <defs>
    <style>
      .cls-1 {
        fill: #ffb9e6;
      }

      .cls-2 {
        fill: #565050;
      }
    </style>
  </defs>
  <g>
    <path class="cls-1" d="M13,25.5c-3.25,0-6.56-1.37-8.85-3.65C1.87,19.56,.5,16.25,.5,13S1.87,6.44,4.15,4.15C6.44,1.87,9.75,.5,13,.5s6.56,1.37,8.85,3.65c2.29,2.29,3.65,5.6,3.65,8.85s-1.37,6.56-3.65,8.85c-2.29,2.29-5.6,3.65-8.85,3.65Z"/>
    <path class="cls-2" d="M13,1c3.12,0,6.3,1.31,8.49,3.51,2.2,2.2,3.51,5.37,3.51,8.49s-1.31,6.3-3.51,8.49c-2.2,2.2-5.37,3.51-8.49,3.51s-6.3-1.31-8.49-3.51c-2.2-2.2-3.51-5.37-3.51-8.49s1.31-6.3,3.51-8.49C6.7,2.31,9.88,1,13,1m0-1C9.6,0,6.2,1.4,3.8,3.8,1.4,6.2,0,9.6,0,13s1.4,6.8,3.8,9.2c2.4,2.4,5.8,3.8,9.2,3.8s6.8-1.4,9.2-3.8c2.4-2.4,3.8-5.8,3.8-9.2s-1.4-6.8-3.8-9.2C19.8,1.4,16.4,0,13,0h0Z"/>
  </g>
  <path class="cls-2" d="M12.9,8.07h.1c.4,0,.9,.2,1.2,.5l5.2,5.2c.6,.6,.6,1.7,0,2.3-.6,.6-1.7,.6-2.3,0l-4.1-4.1-4.1,4.1c-.6,.6-1.7,.6-2.3,0-.6-.6-.6-1.6,0-2.2l5.2-5.2c.3-.3,.7-.5,1.1-.6Z"/>
</svg>