<?xml version="1.0" encoding="UTF-8"?>
<svg xmlns="http://www.w3.org/2000/svg" version="1.1" viewBox="0 0 376 130">
  <defs>
    <style>
      .cls-1 {
        fill: #ffeb73;
      }

      .cls-2 {
        fill: #fff;
      }

      .cls-3 {
        fill: #4c4048;
      }
    </style>
  </defs>
  <!-- Generator: Adobe Illustrator 28.7.1, SVG Export Plug-In . SVG Version: 1.2.0 Build 142)  -->
  <g>
    <g id="_レイヤー_1" data-name="レイヤー_1">
      <path class="cls-3" d="M376,82.09c-37.78-8.97-66.14-23.02-93.92-36.77C229.94,19.49,176.02-7.21,71.82,3.01,52.51,4.91,28.47,12.24,0,24.86v50.83c27.85-13.76,55.86-24.89,76.31-26.9,91.1-8.94,134.78,12.69,185.36,37.74,31.66,15.68,66.16,32.77,114.33,42.69v-47.14Z"/>
      <g>
        <path class="cls-2" d="M35.16,32.91c-.23-.17-.44-.42-.53-.71-.25-.74.16-1.56.9-1.81.73-.25,1.54.16,1.79.9.25.73-.16,1.55-.89,1.79-.24.08-.47.09-.7.06.57,2.36.53,4.68-.28,6.9-.6,1.69-1.76,3.21-3.48,4.77-.1.09-.16.14-.22.16-.08.03-.16,0-.33-.05l-2.06-.76c2.01-1.52,3.18-2.93,3.83-4.61.5-1.32.68-2.64.51-4.03l-4.5,1.51-2.02.72-.15-.04-.62-1.83.08-.13,2.03-.64,6.63-2.23ZM35.37,31.96c.11.33.48.5.81.39.33-.11.51-.47.4-.8-.12-.34-.47-.52-.8-.41s-.52.47-.41.82Z"/>
        <path class="cls-2" d="M43.52,32.02l1.19,3.81-2.25.67-1.05-3.82-.69-2.35.08-.13,1.91-.56.14.08.68,2.31ZM48.44,32.08c.68,2.29.77,3.35.36,4.78-.35,1.2-1.25,2.5-2.53,3.5-.1.09-.16.14-.23.16-.07.02-.15-.01-.31-.07l-1.96-.72c1.65-1.1,2.49-2.34,2.79-3.3.36-1.16.2-1.99-.25-3.5l-1.23-4.16.08-.13,1.97-.58.14.08,1.16,3.95Z"/>
        <path class="cls-2" d="M51.82,29.63l.95-1.81.13-.06c.92.2,2.18.65,3.22,1.18l.03.14-1,2-.12.04c-1.01-.58-2.09-1.02-3.17-1.37l-.04-.12ZM62.63,28.13c.07.1.1.18.12.24.02.1,0,.16-.07.28-1.75,3.27-4.2,5.98-7.38,8.51h-.14s-1.68-1.52-1.68-1.52v-.14c3.04-2.13,5.92-5.39,7.88-9.31l1.28,1.94Z"/>
        <path class="cls-2" d="M69.51,28.88l1.1,5.24-2.39.47-.96-5.29-1.16-5.92.09-.12,2.03-.4.13.09.9,4.59.92-1.55.13-.04c1.27.41,2.22.78,3.5,1.5v.14s-.99,1.92-.99,1.92l-.13.04c-1.08-.66-2.13-1.18-3.35-1.58l.18.92Z"/>
        <path class="cls-2" d="M83.85,29.77l.24,1.73-6.74.93-.24-1.73,2.16-.3-.93-6.73-2.26,1.23-.26-1.91,3.38-1.82,1.25-.17,1.25,9.07,2.15-.3Z"/>
        <path class="cls-2" d="M85.75,23.61l-.1-.08-.08-1.52.08-.09,1.61-.04h.2s-.13-2.69-.13-2.69l.07-.09,1.73-.08.09.08.13,2.68,1.59-.12.07.07.08,1.55-.07.07-1.6.04.09,1.93.4-.37h.14c.61.45,1.2.99,1.63,1.52l-.04.1-1.14,1.12-.11-.02c-.24-.34-.53-.72-.82-1.05l.03.53.35,5.22-2.07.1-.13-5.54c-.24.87-.47,1.61-.86,2.4-.04.09-.11.13-.16.13-.08,0-.16-.05-.22-.14l-.93-1.48c.8-1.16,1.28-2.46,1.69-4.34l-1.54.12ZM97.61,23.13c-.14,1.8-.45,3.64-1.31,5.26.85.7,1.87,1.24,3.12,1.75l-1.23,1.59c-.05.06-.09.09-.14.09-.06,0-.13-.02-.23-.07-1.1-.51-2.01-1.09-2.76-1.78-.87.88-2.06,1.67-3.48,2.26-.07.03-.12.05-.18.05-.07,0-.13-.02-.17-.08l-1.18-1.43c1.51-.56,2.89-1.37,3.73-2.24-.36-.49-.65-1.05-.9-1.59-.24-.56-.43-1.13-.6-1.72-.09.16-.2.32-.29.46-.06.1-.15.16-.23.17-.06,0-.13-.02-.21-.09l-1.23-.89c1.09-1.57,1.81-3.73,2.23-5.94l.12-.06,1.77.33.03.14c-.17.78-.39,1.55-.62,2.29l3.02-.15,1.88-.13.12.09.08,1.56-.11.1-1.25.03ZM93.57,23.31c.28,1.22.65,2.43,1.35,3.49.45-1.14.64-2.37.74-3.59l-2.08.1Z"/>
        <path class="cls-2" d="M106.95,23.05c-.18-1.17-.74-1.6-1.37-1.62-1.01-.03-1.66.59-1.84,3.59.44-.71,1.24-1.11,2.43-1.08,2.2.07,3.26,1.39,3.21,3.27-.08,2.65-1.81,3.85-4.05,3.79-2.69-.08-4.13-1.48-4.01-5.34.12-3.9,1.59-5.93,4.59-5.84,1.64.05,3.07.76,3.41,2.59l-2.36.64ZM106.72,27.46c.04-1.19-.42-1.99-1.27-2.01-1.02-.03-1.33.86-1.36,1.85-.04,1.41.51,2.1,1.29,2.13.73.02,1.29-.65,1.33-1.96Z"/>
        <path class="cls-2" d="M119.46,25.91c-.16,3.82-1.35,5.56-4.08,5.45-2.74-.12-3.79-1.96-3.62-5.78.16-3.79,1.36-5.53,4.1-5.42,2.73.12,3.76,1.96,3.59,5.75ZM116.8,25.8c.13-3.05-.1-3.97-1.01-4.01-.95-.04-1.27.86-1.4,3.91-.13,3.06.11,3.96,1.06,4,.91.04,1.21-.83,1.34-3.9Z"/>
        <path class="cls-2" d="M124.88,27.25l-.35,5.62-2.08-.13.35-4.4.37-5.97.08-1.88.1-.09,2.36.19,6.35.4,2.37.11.09.1-.16,1.87-.29,4.57-.19,3.92c-.08,1.22-.53,1.73-2.21,1.63l-.92-.06c-.28-.02-.31-.05-.35-.19l-.53-1.8c.41.03,1.27.07,1.64.06.21,0,.26-.1.28-.43l.19-3.08-7.09-.44ZM127.7,22.46l-2.5-.16-.2,3.21,2.5.16.2-3.22ZM132.08,25.96l.2-3.21-2.57-.16-.2,3.21,2.57.16Z"/>
        <path class="cls-2" d="M150.34,27.74c-1.02,1.5-2.38,2.22-3.84,2.09-1.25-.11-2.09-.71-2.98-1.75-.7-.81-1.29-1.31-2.32-1.4-1.13-.1-2.19.58-2.88,1.64l-.86-.56c1.02-1.5,2.38-2.22,3.85-2.09,1.25.11,2.09.71,2.98,1.75.7.81,1.3,1.31,2.32,1.4,1.13.1,2.19-.58,2.88-1.64l.86.56Z"/>
        <path class="cls-2" d="M159.76,32.8l-.22,1.95-6.72-.78,1.26-10.84,2.57.3-1.03,8.9,4.14.48Z"/>
        <path class="cls-2" d="M167.9,28.12l1.82.22.08.11-.23,1.55-.11.08-1.81-.3-.46-.07-.22,1.51.71.1,1.82.22.08.11-.22,1.55-.11.08-1.81-.3-.69-.1-.54,4.15-2.02-.29.66-4.14-.94-.14-1.82-.22-.08-.11.22-1.55.11-.08,1.81.3.96.14.22-1.51-.47-.07-1.82-.22-.08-.11.22-1.55.11-.08,1.81.3.47.07.6-4.17.11-.08,1.69.25.08.11-.6,4.17.46.07ZM164.54,24.23h.14c.38.7.62,1.47.81,2.26l-.09.12-1.55.54-.12-.07c-.16-.77-.4-1.64-.68-2.26l.05-.13,1.44-.44ZM170.55,25.56l.05.12c-.45.87-.74,1.39-1.27,2.11-.04.05-.08.07-.12.07-.03,0-.05-.02-.09-.04l-1.32-.79c.57-.82.81-1.37,1.16-2.22l.14-.02,1.45.78ZM172.65,26.19l-.57,3.96-.49,3.89-1.98-.29.63-3.87.57-3.96.11-.08,1.65.24.08.11ZM174.21,35.76c-.24,1.64-.69,2.04-3.09,1.69-.28-.04-.29-.07-.34-.22l-.63-1.92c.65.09,1.46.18,1.7.19.29.01.39-.06.44-.39l1.47-10.17.11-.08,1.72.25.08.11-1.09,7.51-.38,3.03Z"/>
        <path class="cls-2" d="M182.17,32.8c-.14.83-.92,1.37-1.75,1.23s-1.37-.92-1.23-1.75c.15-.83.92-1.37,1.75-1.23.83.14,1.37.92,1.23,1.75Z"/>
        <path class="cls-2" d="M193.18,38.22l-.42,2.06-7.48-1.52.3-1.47c4.6-3.02,5.79-4.03,6.1-5.56.14-.67-.1-1.22-.75-1.35-.85-.17-1.44.39-1.97,1.87l-2.1-1.11c.81-1.99,2.38-2.86,4.44-2.44,2.2.45,3.28,1.84,2.91,3.7-.34,1.66-1.63,2.74-5.31,4.95l4.28.87Z"/>
        <path class="cls-2" d="M202.59,40.54l-.45,1.91-6.58-1.54,2.49-10.63,2.52.59-2.05,8.72,4.06.95Z"/>
        <path class="cls-2" d="M211.24,36.91l1.78.45.07.12-.42,1.51-.12.07-1.75-.53-.45-.12-.41,1.47.69.19,1.78.45.07.12-.42,1.51-.12.07-1.75-.53-.67-.19-1.07,4.05-1.97-.55,1.18-4.02-.92-.26-1.78-.45-.07-.12.42-1.51.12-.07,1.75.53.93.26.41-1.47-.46-.13-1.78-.45-.07-.12.42-1.51.12-.07,1.75.53.46.13,1.13-4.06.12-.07,1.64.46.07.12-1.13,4.06.45.12ZM208.4,32.63l.14.02c.29.73.43,1.53.51,2.34l-.1.1-1.61.34-.11-.09c-.06-.79-.19-1.68-.38-2.33l.06-.13,1.48-.26ZM214.19,34.71l.04.13c-.56.8-.91,1.29-1.53,1.93-.04.05-.09.06-.13.05-.03,0-.05-.03-.09-.05l-1.2-.95c.67-.74.97-1.25,1.43-2.06h.15s1.33.95,1.33.95ZM216.19,35.6l-1.08,3.85-.99,3.79-1.93-.54,1.12-3.76,1.08-3.85.12-.07,1.6.45.07.12ZM216.51,45.29c-.44,1.59-.95,1.93-3.28,1.28-.27-.08-.28-.11-.3-.26l-.38-1.98c.63.18,1.42.37,1.66.41.29.05.39,0,.48-.33l2.76-9.89.12-.07,1.67.47.07.12-2.04,7.31-.77,2.95Z"/>
        <path class="cls-2" d="M224.81,43.48c-.26.8-1.11,1.23-1.91.97-.8-.26-1.23-1.11-.97-1.91s1.11-1.23,1.91-.97c.8.26,1.23,1.11.97,1.91Z"/>
        <path class="cls-2" d="M236.07,52.81c-.44-1.46-1.1-2.94-1.75-4.19-1.86.94-3.66,1.37-5.73,1.61-.16.02-.26,0-.32-.02-.08-.03-.12-.09-.17-.17l-1.1-1.77c3.54-.28,6.92-1.28,9.14-3.55l-3.12-1.16-1.97-.69-.05-.14.67-1.78.15-.03,1.95.77,3.71,1.38,1.36.43.51,1.08c.06.13.08.21.06.29-.03.08-.1.16-.24.27-1.04.94-2.01,1.71-2.94,2.35.86,1.5,1.52,2.73,2.15,4.37l-.07.14-2.08.87-.14-.07Z"/>
        <path class="cls-2" d="M247.42,49.63c-1.23.69-2.44,1.21-3.7,1.56-.19.04-.29.06-.38.02-.05-.02-.1-.08-.17-.17l-1.13-1.58c2.68-.66,4.66-1.7,6.49-3.35h.13s1.55,1.48,1.55,1.48l-.03.14c-.3.25-.6.47-.93.7l1.66.68,1.01.34.67,1.52c.07.15.1.26.06.35-.03.06-.09.13-.19.22-3.12,2.79-6.23,4.27-10.6,4.37-.19,0-.3,0-.38-.04-.06-.03-.12-.08-.17-.2l-1.06-1.92c3.27.3,6.85-.59,9.64-3.09l-2.46-1.04Z"/>
        <path class="cls-2" d="M252.77,58.64l.81-1.66.15-.02,1.62.83,2.41,1.17,1.55-3.19-1.08-.53-1.9-.87-.04-.14.8-1.65.15-.02,1.85.94,4.47,2.17,1.62.74.08.13-.8,1.65-.14.06-1.54-.8-1.39-.67-1.55,3.19,2.36,1.14,1.77.81.08.13-.81,1.66-.14.06-1.71-.88-6.87-3.33-1.71-.78-.04-.14Z"/>
        <path class="cls-2" d="M273.99,62.67c-.1.2-.24.46-.35.64.82-.15,1.77-.39,2.44-.65l-4.92-2.58-2.16-1.09-.04-.14.85-1.62.15-.02,2.08,1.14,5.52,2.9,1.27.59.26,1.62c0,.08,0,.14-.03.21-.04.07-.1.14-.22.18-1.02.43-2.69.97-4.19,1.35-.29.07-.35.04-.47-.18l-.74-1.37c-1.52,2.6-3.16,3.99-6.12,4.45-.12.02-.19,0-.27-.03s-.14-.12-.22-.24l-1.21-1.71c3.37-.13,4.73-1.44,6.27-4.51l.14-.05,1.91,1,.04.13Z"/>
        <path class="cls-2" d="M283.67,70.26c-.4.74-1.31,1.01-2.05.61-.74-.4-1.01-1.31-.61-2.05.4-.74,1.31-1.01,2.05-.61.74.4,1.01,1.31.61,2.05Z"/>
        <path class="cls-2" d="M293.32,73.35c-2.06,1.43-4.23,2.43-6.13,2.8-.11.02-.17.02-.23-.01s-.1-.08-.16-.18l-1.11-1.89c2.2-.25,4.43-1.26,6.3-2.73l.12.04,1.25,1.82-.04.16ZM294.6,73.81h2.02s.12.09.12.09c.57,1.69.92,3.61.9,5.6l-.08.1-2.41.12-.1-.08c.11-2.06-.06-3.96-.54-5.7l.1-.12Z"/>
        <path class="cls-2" d="M307.03,81.06c-.71,1-1.44,1.75-2.29,2.34-1.73,1.21-3.43,1.62-5.33,1.69-.08,0-.14,0-.18-.01-.06-.03-.09-.09-.17-.25l-.88-1.76c2.05.02,3.64-.34,5.09-1.36.59-.42,1.15-.97,1.69-1.7l-1.15-.58-1.81-.87-.04-.14.83-1.64.15-.02,1.73.92,1.36.69c.31-.55.65-1.16,1.01-1.87l.14-.06,1.87.95.04.13c-.35.7-.69,1.33-1.02,1.89l2.09,1.06,1.56.74.03.16c-1.11,1.97-2.51,4.22-3.26,5.1-1.22,1.45-1.96,2.02-4.23.87-.33-.17-.32-.2-.31-.44l.15-2.12c.47.27.92.51,1.37.73.39.18.68.24,1.42-.64.51-.6,1.29-1.81,1.91-2.9l-1.79-.9ZM311.15,78.75l.88-.13.13.05c.27.62.48,1.28.6,1.97l-.08.12-.93.14-.12-.06c-.13-.71-.27-1.3-.55-1.98l.07-.11ZM312.72,78.56l.87-.14.13.05c.27.62.46,1.22.58,1.91l-.08.12-.89.15-.12-.06c-.13-.71-.28-1.24-.57-1.92l.07-.11Z"/>
        <path class="cls-2" d="M322.32,85.16l1.59.4.05.12-.46,1.71-.12.07-1.59-.49-1.62-.46-.42,1.62,2.17.64,1.72.45.09.12-.46,1.71-.12.09-1.62-.51-2.24-.65-.22.9-.74,3.2-2.29-.54.84-3.06.27-1.11-2.41-.7-1.68-.43-.09-.1.41-1.75.13-.08,1.71.53,2.38.68.42-1.62-1.46-.42-1.61-.41-.1-.12.42-1.73.13-.08,1.64.52,1.43.41.42-1.67.12-.1,1.96.54.07.14-.42,1.7,1.68.49Z"/>
        <path class="cls-2" d="M329.73,92.99c-.32.78-1.2,1.14-1.97.82-.78-.32-1.14-1.2-.82-1.97.32-.78,1.2-1.14,1.97-.82.78.32,1.14,1.2.82,1.97Z"/>
        <path class="cls-2" d="M339.85,102.54l-2.43-.9.3-2.62-3.14-1.16-1.47,2.19-2.25-.83,6.4-9.27,3.74,1.39-1.16,11.21ZM338.37,93.48c.05-.5.12-1.01.23-1.51l-.07-.02c-.25.44-.53.88-.82,1.29l-2,2.95,2.25.83.41-3.54Z"/>
        <path class="cls-2" d="M350.03,103.39l-1.23-.4-.73,2.25-2.33-.76.73-2.25-4.29-1.4.75-2.3,5.19-4.75,3.33,1.09-2,6.14,1.22.4-.65,1.98ZM347.13,100.25l1.49-4.57-3.97,3.76,2.48.81Z"/>
      </g>
      <path class="cls-1" d="M22.83,41.35c-5.28,3.94-5.57,5.1-3.03,12.22-4.26-6.24-5.37-6.69-11.66-4.74,5.28-3.94,5.57-5.1,3.03-12.22,4.26,6.24,5.37,6.69,11.66,4.74Z"/>
      <path class="cls-1" d="M373.12,105.13c-6.59.17-7.49.95-9.52,8.23.12-7.56-.53-8.56-6.79-10.6,6.59-.17,7.49-.95,9.52-8.23-.12,7.56.53,8.56,6.79,10.6Z"/>
    </g>
  </g>
</svg>