<?xml version="1.0" encoding="UTF-8"?>
<svg id="_レイヤー_2" data-name="レイヤー 2" xmlns="http://www.w3.org/2000/svg" viewBox="0 0 23.56 27.48">
  <defs>
    <style>
      .cls-1 {
        fill: #fff;
      }
    </style>
  </defs>
  <g id="SP_TOP" data-name="SP・TOP">
    <path class="cls-1" d="M22.26,0H1.29C.58,0,0,.58,0,1.29V26.19c0,.71,.58,1.29,1.29,1.29H22.26c.71,0,1.29-.58,1.29-1.29V1.29c0-.71-.58-1.29-1.29-1.29ZM4.86,24.57c0,.14-.12,.26-.26,.26h-1.18c-.14,0-.26-.12-.26-.26v-1.09c0-.14,.12-.26,.26-.26h1.18c.14,0,.26,.12,.26,.26v1.09Zm0-2.65c0,.14-.12,.26-.26,.26h-1.18c-.14,0-.26-.12-.26-.26v-1.09c0-.14,.12-.26,.26-.26h1.18c.14,0,.26,.12,.26,.26v1.09Zm2.53,2.65c0,.14-.12,.26-.26,.26h-1.18c-.14,0-.26-.12-.26-.26v-1.09c0-.14,.12-.26,.26-.26h1.18c.14,0,.26,.12,.26,.26v1.09Zm0-2.65c0,.14-.12,.26-.26,.26h-1.18c-.14,0-.26-.12-.26-.26v-1.09c0-.14,.12-.26,.26-.26h1.18c.14,0,.26,.12,.26,.26v1.09Zm2.64,2.65c0,.14-.12,.26-.26,.26h-1.18c-.14,0-.26-.12-.26-.26v-1.09c0-.14,.12-.26,.26-.26h1.18c.14,0,.26,.12,.26,.26v1.09Zm0-2.65c0,.14-.12,.26-.26,.26h-1.18c-.14,0-.26-.12-.26-.26v-1.09c0-.14,.12-.26,.26-.26h1.18c.14,0,.26,.12,.26,.26v1.09Zm0-2.65c0,.14-.12,.26-.26,.26h-1.18c-.14,0-.26-.12-.26-.26v-1.09c0-.14,.12-.26,.26-.26h1.18c.14,0,.26,.12,.26,.26v1.09Zm2.62,5.29c0,.14-.12,.26-.26,.26h-1.18c-.14,0-.26-.12-.26-.26v-1.09c0-.14,.12-.26,.26-.26h1.18c.14,0,.26,.12,.26,.26v1.09Zm0-2.65c0,.14-.12,.26-.26,.26h-1.18c-.14,0-.26-.12-.26-.26v-1.09c0-.14,.12-.26,.26-.26h1.18c.14,0,.26,.12,.26,.26v1.09Zm0-2.65c0,.14-.12,.26-.26,.26h-1.18c-.14,0-.26-.12-.26-.26v-1.09c0-.14,.12-.26,.26-.26h1.18c.14,0,.26,.12,.26,.26v1.09Zm2.62,5.29c0,.14-.12,.26-.26,.26h-1.18c-.14,0-.26-.12-.26-.26v-1.09c0-.14,.12-.26,.26-.26h1.18c.14,0,.26,.12,.26,.26v1.09Zm0-2.65c0,.14-.12,.26-.26,.26h-1.18c-.14,0-.26-.12-.26-.25v-1.09c0-.14,.12-.26,.26-.26h1.18c.14,0,.26,.12,.26,.25v1.09Zm0-2.65c0,.14-.12,.26-.26,.26h-1.18c-.14,0-.26-.12-.26-.25v-1.09c0-.14,.12-.26,.26-.26h1.18c.14,0,.26,.12,.26,.25v1.09Zm2.62,2.65c0,.14-.12,.26-.26,.26h-1.18c-.14,0-.26-.12-.26-.26v-1.09c0-.14,.12-.26,.26-.26h1.18c.14,0,.25,.12,.26,.26v1.09Zm0-2.65c0,.14-.12,.26-.26,.26h-1.18c-.14,0-.26-.12-.26-.26v-1.09c0-.14,.12-.26,.26-.26h1.18c.14,0,.25,.12,.26,.26v1.09Zm2.62,2.65c0,.14-.12,.26-.26,.26h-1.18c-.14,0-.26-.12-.26-.26v-1.09c0-.14,.12-.26,.26-.26h1.18c.14,0,.26,.12,.26,.26v1.09Zm0-2.62c0,.14-.12,.26-.26,.26h-1.18c-.14,0-.26-.12-.26-.26v-1.09c0-.14,.12-.26,.26-.26h1.18c.14,0,.26,.12,.26,.26v1.09Zm0-3.52H3.17V2.79H20.53V15.78Z"/>
  </g>
</svg>