<?xml version="1.0" encoding="UTF-8"?>
<svg id="_レイヤー_2" data-name="レイヤー 2" xmlns="http://www.w3.org/2000/svg" viewBox="0 0 23.6 27.6">
  <defs>
    <style>
      .cls-1 {
        fill: #fff;
      }
    </style>
  </defs>
  <g id="SP_TOP" data-name="SP・TOP">
    <path class="cls-1" d="M8.39,11.84c0-.66,.53-1.19,1.19-1.19s1.19,.53,1.19,1.19-.53,1.19-1.19,1.19-1.19-.53-1.19-1.19Zm1.2,3.63l1.24,1.48c.13,.15,.36,.15,.48,0l2.63-3.15c.13-.15,.36-.15,.48,0l1.69,2.02v-6.09H7.49v7.69l1.63-1.95c.12-.15,.35-.15,.48,0h0Zm12.4,9.23c0,.55-.45,1.01-1.01,1.01H2.61c-.55,0-1.01-.45-1.01-1.01V2.9c0-.55,.45-1.01,1.01-1.01H20.99c.55,0,1.01,.45,1.01,1.01V24.7Zm.31-24.7H1.29C.58,0,0,.58,0,1.29V26.31c0,.71,.58,1.29,1.29,1.29H22.3c.71,0,1.29-.58,1.29-1.29V1.29c0-.71-.58-1.29-1.29-1.29ZM6.05,9.59c0-.71,.58-1.29,1.29-1.29h8.91c.71,0,1.29,.58,1.29,1.29v8.41c0,.71-.58,1.29-1.29,1.29H7.34c-.71,0-1.29-.58-1.29-1.29V9.59Zm-3.01,14.68H20.56V3.33H3.04V24.27Z"/>
  </g>
</svg>