<?xml version="1.0" encoding="UTF-8"?>
<svg id="_レイヤー_1" data-name="レイヤー 1" xmlns="http://www.w3.org/2000/svg" viewBox="0 0 40 40">
  <defs>
    <style>
      .cls-1 {
        fill: #1fb1a5;
      }
    </style>
  </defs>
  <path class="cls-1" d="M22.8,21.2l-1.5,1.3v1.2h-3.3v-2.7l2.7-2.3c.8-.7,2.7-2.4,2.6-4.1-.1-1.7-1.4-3-3.1-3.1-.9,0-1.8,.3-2.4,.9-.7,.6-1,1.5-1,2.4h-3.3c0-1.8,.7-3.5,2-4.8,1.3-1.2,3-1.9,4.8-1.8,3.3,.2,6.1,2.9,6.2,6.2,.2,3.1-2.2,5.6-3.7,6.8h0Zm-1.5,9.1h-3.3v-3.3h3.3v3.3ZM20,.3C9,.3,0,9.1,0,20s9,19.7,20,19.7,20-8.8,20-19.7S31,.3,20,.3Z"/>
</svg>