<?xml version="1.0" encoding="UTF-8"?>
<svg xmlns="http://www.w3.org/2000/svg" version="1.1" viewBox="0 0 400 400">
  <defs>
    <style>
      .cls-1 {
        fill: #50bcbc;
      }
    </style>
  </defs>
  <!-- Generator: Adobe Illustrator 28.7.1, SVG Export Plug-In . SVG Version: 1.2.0 Build 142)  -->
  <g>
    <g id="_レイヤー_1" data-name="レイヤー_1">
      <g>
        <path class="cls-1" d="M364.34,399H35.66c-11.17,0-20.26-9.09-20.26-20.26V21.26C15.41,10.09,24.49,1,35.66,1h328.67c11.17,0,20.26,9.09,20.26,20.26v357.48c0,11.17-9.09,20.26-20.26,20.26ZM35.66,9.13c-6.69,0-12.13,5.44-12.13,12.13v357.48c0,6.69,5.44,12.13,12.13,12.13h328.67c6.69,0,12.13-5.44,12.13-12.13V21.26c0-6.69-5.44-12.13-12.13-12.13H35.66Z"/>
        <rect class="cls-1" x="146.09" y="236.47" width="26.58" height="25.12" rx="4.01" ry="4.01"/>
        <rect class="cls-1" x="187.21" y="236.47" width="26.58" height="25.12" rx="4.01" ry="4.01"/>
        <path class="cls-1" d="M250.91,236.47h-18.57c-2.19,0-4.01,1.82-4.01,4.01v17.1c0,2.19,1.82,4.01,4.01,4.01h18.57c2.19-.01,4.01-1.83,4.01-4.02v-17.1c0-2.17-1.82-3.99-4.01-3.99Z"/>
        <path class="cls-1" d="M292.04,236.47h-18.57c-2.19,0-4.01,1.82-4.01,4.01v17.1c0,2.19,1.82,4.01,4.01,4.01h18.57c2.19,0,4.01-1.82,4.01-4.01v-17.1c-.01-2.19-1.83-4.01-4.01-4.01Z"/>
        <rect class="cls-1" x="310.59" y="236.82" width="26.58" height="25.12" rx="4.01" ry="4.01"/>
        <rect class="cls-1" x="146.09" y="277.94" width="26.58" height="25.12" rx="4.01" ry="4.01"/>
        <rect class="cls-1" x="187.21" y="277.94" width="26.58" height="25.12" rx="4.01" ry="4.01"/>
        <path class="cls-1" d="M250.91,277.94h-18.57c-2.19,0-4.01,1.82-4.01,4.01v17.1c0,2.19,1.82,4.01,4.01,4.01h18.57c2.19-.01,4.01-1.83,4.01-4.02v-17.1c0-2.17-1.82-3.99-4.01-3.99h0Z"/>
        <path class="cls-1" d="M292.04,277.94h-18.57c-2.19,0-4.01,1.82-4.01,4.01v17.1c0,2.19,1.82,4.01,4.01,4.01h18.57c2.19,0,4.01-1.82,4.01-4.01v-17.1c-.01-2.19-1.83-4.01-4.01-4.01Z"/>
        <rect class="cls-1" x="310.59" y="277.93" width="26.58" height="25.12" rx="4.01" ry="4.01"/>
        <rect class="cls-1" x="146.09" y="319.42" width="26.58" height="25.12" rx="4.01" ry="4.01"/>
        <rect class="cls-1" x="104.66" y="277.94" width="26.58" height="25.12" rx="4.01" ry="4.01"/>
        <rect class="cls-1" x="104.66" y="319.42" width="26.58" height="25.12" rx="4.01" ry="4.01"/>
        <rect class="cls-1" x="65.03" y="277.94" width="26.58" height="25.12" rx="4.01" ry="4.01"/>
        <rect class="cls-1" x="65.03" y="319.42" width="26.58" height="25.12" rx="4.01" ry="4.01"/>
        <rect class="cls-1" x="187.21" y="319.42" width="26.58" height="25.12" rx="4.01" ry="4.01"/>
        <rect class="cls-1" x="228.34" y="319.42" width="26.58" height="25.12" rx="4.01" ry="4.01"/>
        <rect class="cls-1" x="65.03" y="44.79" width="272.14" height="163.92"/>
      </g>
    </g>
  </g>
</svg>