<?xml version="1.0" encoding="UTF-8"?>
<svg xmlns="http://www.w3.org/2000/svg" version="1.1" viewBox="0 0 400 400">
  <defs>
    <style>
      .cls-1 {
        fill: #50bcbc;
      }
    </style>
  </defs>
  <!-- Generator: Adobe Illustrator 28.7.1, SVG Export Plug-In . SVG Version: 1.2.0 Build 142)  -->
  <g>
    <g id="_レイヤー_1" data-name="レイヤー_1">
      <g>
        <path class="cls-1" d="M396.78,388.02c-23.41-19.7-102.39-111.32-107.15-118.45,37.44-28.16,59.62-72.31,59.62-119.32C349.25,67.96,282.29,1,200,1c-30.91,0-60.57,9.36-85.76,27.08-2.81,1.97-3.48,5.86-1.51,8.66,1.97,2.81,5.86,3.48,8.66,1.51,23.09-16.23,50.26-24.81,78.61-24.81,75.43,0,136.81,61.38,136.81,136.81,0,42.82-20.07,83.03-53.99,108.87-16.01-25.12-31.02-52.91-46.08-85.21-1.03-2.19-3.22-3.59-5.63-3.59h-62.19c-3.44,0-6.22,2.78-6.22,6.22s2.78,6.22,6.22,6.22h58.24c7.62,16.17,15.24,31.23,22.99,45.41-43.81-11.07-68.36,5.74-83.63,16.22-5.69,3.9-11.05,7.57-13.51,6.82-1.12-.34-4.15-2.32-8.69-13.08,6.56-11.55,12.97-23.58,19.25-36.16,1.54-3.08.28-6.81-2.78-8.33-3.08-1.54-6.81-.28-8.33,2.78C112.53,276.32,67.91,333.63,3.22,388.02c-2.63,2.21-2.97,6.13-.76,8.77,1.23,1.46,2.99,2.21,4.76,2.21h385.56c2.61,0,4.94-1.63,5.85-4.09.89-2.46.16-5.21-1.85-6.89h0Z"/>
        <path class="cls-1" d="M98.09,256.82c1.57,0,3.16-.59,4.37-1.79,2.44-2.41,2.47-6.34.06-8.8-25.36-25.75-39.33-59.84-39.33-95.99,0-28.19,8.5-55.25,24.58-78.26,1.97-2.81,1.27-6.69-1.54-8.66-2.81-1.96-6.69-1.27-8.66,1.54-17.54,25.11-26.82,54.63-26.82,85.38,0,39.43,15.24,76.62,42.91,104.71,1.21,1.24,2.83,1.87,4.43,1.87h0Z"/>
        <path class="cls-1" d="M89.01,59.81c1.18,1.06,2.66,1.57,4.14,1.57,1.71,0,3.42-.7,4.65-2.08,3.12-3.5,6.45-6.89,9.92-10.06,2.53-2.32,2.71-6.25.39-8.78-2.32-2.53-6.25-2.71-8.78-.39-3.78,3.45-7.42,7.14-10.82,10.96-2.29,2.57-2.05,6.5.51,8.78h0Z"/>
      </g>
    </g>
  </g>
</svg>