<?xml version="1.0" encoding="UTF-8"?>
<svg xmlns="http://www.w3.org/2000/svg" version="1.1" viewBox="0 0 400 400">
  <defs>
    <style>
      .cls-1 {
        fill: #50bcbc;
      }
    </style>
  </defs>
  <!-- Generator: Adobe Illustrator 28.7.1, SVG Export Plug-In . SVG Version: 1.2.0 Build 142)  -->
  <g>
    <g id="_レイヤー_1" data-name="レイヤー_1">
      <path class="cls-1" d="M340.71,59.29C303.13,21.7,253.15,1,200,1S96.87,21.7,59.29,59.29C21.7,96.87,1,146.85,1,200s20.7,103.13,58.29,140.71c37.59,37.59,87.56,58.29,140.71,58.29s103.13-20.7,140.71-58.29c37.59-37.59,58.29-87.56,58.29-140.71s-20.7-103.13-58.29-140.71ZM329.23,329.23c-34.52,34.52-80.41,53.53-129.23,53.53-.38,0-.75-.02-1.13-.03V17.27c.38,0,.75-.03,1.13-.03,48.82,0,94.71,19.01,129.23,53.53,34.52,34.52,53.53,80.41,53.53,129.23s-19.01,94.71-53.53,129.23Z"/>
    </g>
  </g>
</svg>