<?xml version="1.0" encoding="UTF-8"?>
<svg xmlns="http://www.w3.org/2000/svg" version="1.1" viewBox="0 0 210 40">
  <defs>
    <style>
      .cls-1 {
        fill: #023886;
      }
    </style>
  </defs>
  <!-- Generator: Adobe Illustrator 28.7.1, SVG Export Plug-In . SVG Version: 1.2.0 Build 142)  -->
  <g>
    <g id="_图层_1" data-name="图层_1">
      <g>
        <path class="cls-1" d="M5.74,10.71c6.54.4,16.16,1.96,22.16,3.53,4.47,1.16,5.99-7.96,1.71-9.01C22.94,3.57,12.99,2.15,7.04,1.67c-5.7-.45-5.98,8.75-1.3,9.04"/>
        <path class="cls-1" d="M6.69,13.64c-4.81-.42-5.63,8.23-.8,8.65,5.29.46,14.37,2.22,19.99,3.73,4.14,1.11,6.7-7.36,2.25-8.56-5.78-1.56-15.75-3.33-21.45-3.82"/>
        <path class="cls-1" d="M30.47,30.35c-7.54-2.3-18.95-4.2-25.08-5-5.95-.74-6.63,8.44-1.81,9.07,6.14.8,15.56,1.87,24.07,4.75,5.21,1.77,7.3-7.47,2.82-8.82"/>
        <path class="cls-1" d="M67.35,27h-29.96c-4.51,0-4.51,9.71,0,9.71h29.96c4.51,0,4.51-9.71,0-9.71"/>
        <path class="cls-1" d="M39.88,14.09h24.76c4.51,0,4.51-9.72,0-9.72h-24.76c-4.51,0-4.51,9.72,0,9.72"/>
        <path class="cls-1" d="M108.7,31.24c-2.21-2.34-7.36-5.93-11.16-8.52,2.6-3.43,6.46-10.37,6.46-14.85,0-2.96-2.54-4.59-4.54-4.59h-22.59c-4.11,0-4.11,8.86,0,8.86h15.55c.25,0,.32.26.25.42-3.12,7.25-10.47,13.02-18.98,17.09-4.07,1.95-.63,10.79,4.55,8.67,6.02-2.46,8.96-5.08,13.11-8.83,3.16,2.42,8.25,6.53,10.9,8.75,3.32,2.8,9.47-3.83,6.45-7"/>
        <path class="cls-1" d="M137.12,19.11c-5.18-2.34-10.46-4.01-15.97-5.61V4.56c0-4.51-9.71-4.51-9.71,0v31.65c0,4.51,9.71,4.51,9.71,0v-12.89c3.79,1.1,7.27,2.36,12.12,4.74,4.97,2.43,9.2-6.55,3.85-8.94"/>
        <path class="cls-1" d="M151.98,21.92c.84,4.05,9.02,2.24,8.25-1.95-.49-2.67-1.29-6.15-2.15-8.93-1.05-3.34-9.19-2.22-8.31,1.45.46,1.9,1.73,7.08,2.21,9.43"/>
        <path class="cls-1" d="M150.05,21.53c-.55-2.65-1.66-6.42-2.61-9.2-1.07-3.13-8.8-2.02-7.96,1.84.42,1.9,1.8,6.91,2.33,9.24.93,4.04,9.11,2.3,8.23-1.88"/>
        <path class="cls-1" d="M162.62,11.44c0,10.82-1.36,15.7-12.66,19.24-4.77,1.49-1.55,10.52,4.5,8.21,13.71-5.23,16.96-13.32,16.96-27.27,0-4.01-8.81-3.91-8.81-.18"/>
        <path class="cls-1" d="M204.73.41c-1.98,0-3.69,1.18-4.45,2.87h-25.28c-4.34,0-4.34,9.35,0,9.35h20.4c.53,0,.62.17.48.81-2.06,9.1-7.59,13.45-15.87,16.07-5.73,1.81-1.94,11.29,3.02,9.87,12.89-3.73,22.98-14.73,23.4-29.5,1.87-.69,3.2-2.49,3.2-4.59,0-2.7-2.19-4.88-4.88-4.88M204.73,7.24c-1.08,0-1.95-.87-1.95-1.96s.88-1.95,1.95-1.95,1.94.88,1.94,1.95-.87,1.96-1.94,1.96"/>
      </g>
    </g>
  </g>
</svg>