<?xml version="1.0" encoding="UTF-8"?>
<svg xmlns="http://www.w3.org/2000/svg" version="1.1" viewBox="0 0 298 96">
  <defs>
    <style>
      .cls-1 {
        fill: #ffec68;
      }

      .cls-2 {
        fill: #ffec73;
      }

      .cls-3 {
        fill: #8aeddd;
      }

      .cls-4 {
        fill: #ffb9e6;
      }

      .cls-5 {
        fill: none;
        stroke: #565050;
        stroke-linecap: round;
        stroke-linejoin: round;
        stroke-width: 1.8px;
      }

      .cls-6 {
        fill: #ffeb73;
      }

      .cls-7 {
        fill: #565050;
      }
    </style>
  </defs>
  <!-- Generator: Adobe Illustrator 28.7.1, SVG Export Plug-In . SVG Version: 1.2.0 Build 142)  -->
  <g>
    <g id="_レイヤー_1">
      <g>
        <path class="cls-5" d="M272.8,63.55"/>
        <circle class="cls-1" cx="103.4" cy="47.05" r="4.4"/>
        <g>
          <g>
            <g>
              <path class="cls-4" d="M124.4,90.95c-1.4,0-2.7-.8-3.2-2.2-.7-1.8.1-3.8,1.9-4.6,3.6-1.5,8.2-5,7.1-8-1.2-3.5-6.3-3.6-8.5-3.1-2.4.5-7.8,3.7-10.7,5.6-1.6,1.1-3.8.6-4.8-1s-.6-3.8,1-4.8c1.4-.9,8.7-5.6,13.1-6.6,9.5-2,15.1,3.5,16.6,7.7,2.5,7.3-3.9,13.8-11.1,16.8-.4.2-.9.3-1.3.3l-.1-.1Z"/>
              <g>
                <path class="cls-7" d="M124.4,91.85c-1.8,0-3.4-1.1-4.1-2.7-.5-1.1-.5-2.3,0-3.4s1.3-1.9,2.4-2.4c3.3-1.4,7.5-4.5,6.6-6.9-1-2.9-5.6-3-7.5-2.5-1.1.2-3.4,1.3-6.2,2.9-.4.2-1,0-1.2-.3-.2-.4,0-1,.3-1.2,2.1-1.2,5-2.7,6.7-3.1,3-.6,8.2-.2,9.6,3.7,1.3,3.8-4,7.6-7.6,9.2-.6.3-1.1.8-1.4,1.4s-.3,1.3,0,2c.5,1.3,2.1,1.9,3.4,1.4,3.5-1.5,6.6-3.7,8.6-6.2.3-.4.9-.5,1.3-.1.4.3.5.9.1,1.3-2.2,2.8-5.5,5.2-9.3,6.7-.5.2-1.1.3-1.7.3v-.1Z"/>
                <path class="cls-7" d="M136.3,82.55h-.4c-.4-.2-.6-.8-.4-1.2,1.1-2.3,1.3-4.7.5-7-1.4-3.9-6.6-9-15.5-7.1-2.2.5-5.9,2.2-10.2,4.8-.4.3-1,.1-1.2-.3-.3-.4-.1-1,.3-1.2,3.2-1.9,7.7-4.4,10.8-5.1,10.1-2.1,16.1,3.8,17.6,8.3,1,2.8.8,5.6-.5,8.4-.2.3-.5.5-.8.5l-.2-.1Z"/>
                <path class="cls-7" d="M109,80.15c-1.4,0-2.8-.7-3.7-2-1.3-2-.8-4.8,1.3-6.1h.2c.4-.4,1-.3,1.2.1.3.4.2,1-.3,1.2h-.1c-1.3.9-1.6,2.5-.8,3.7.8,1.2,2.4,1.5,3.6.7.5-.3,1-.7,1.6-1,.4-.3,1-.1,1.2.3.3.4.1,1-.3,1.2-.6.4-1.1.7-1.6,1-.7.5-1.6.7-2.4.7l.1.2Z"/>
              </g>
            </g>
            <g>
              <g>
                <path class="cls-4" d="M220.5,73.25c-.6,0-1.2-.2-1.8-.5-3.1-1.8-5-6.4-6-14.5-.6-5.3-.6-10.1-.6-10.4,0-1.7,1.3-3,3-3h0c1.7,0,3,1.4,3,3,0,6,.7,12.1,1.8,15.9.2-.9.3-1.8.4-2.7.2-1.6,1.7-2.8,3.3-2.6s2.8,1.7,2.6,3.3c-1.1,9.5-3.2,10.6-4.1,11-.5.3-1.1.4-1.6.4v.1ZM221.7,67.55h0Z"/>
                <path class="cls-4" d="M230.3,85.75c-1.1,0-2.2-.5-3-1.4-1.4-1.7-1.3-4.2.4-5.6,0,0,5.8-5.2,5.9-12.5,0-5.7-3-16.7-4.2-20.5-.7-2.1.5-4.4,2.6-5,2.1-.7,4.4.5,5,2.6.2.6,4.7,14.8,4.6,23-.1,11-8.4,18.2-8.7,18.5-.8.7-1.7,1-2.6,1v-.1Z"/>
              </g>
              <g>
                <path class="cls-7" d="M220.5,74.15c-.8,0-1.5-.2-2.2-.6-3.4-1.9-5.5-6.7-6.5-15.1-.5-4.2-.6-8.2-.6-9.7,0-.5.4-.9.9-.9h0c.5,0,.9.4.9.9,0,1.5.1,5.4.6,9.5,1,7.8,2.7,12.2,5.6,13.8.8.5,1.7.5,2.5,0,.2,0,.3-.2.5-.3.4-.3,1-.2,1.3.2.3.4.2,1-.2,1.3-.3.3-.6.4-.8.5-.6.3-1.3.5-2,.5v-.1ZM224.4,71.05h-.4c-.5-.2-.7-.7-.5-1.2.8-1.8,1.3-4.5,1.7-8,0-.6,0-1.1-.4-1.5s-.9-.7-1.4-.8c-.6,0-1.1,0-1.5.4s-.7.9-.8,1.4c0,.9-.2,1.8-.4,2.7,0,.4-.4.7-.8.7s-.8-.3-.9-.7c-1.1-4.1-1.8-10.2-1.8-16.1,0-1.2-.9-2.1-2.1-2.1-.7,0-1.4.3-1.8.9-.3.4-.8.5-1.2.2s-.5-.8-.2-1.2c.7-1.1,1.9-1.7,3.2-1.7,2.2,0,3.9,1.8,3.9,3.9,0,3.9.3,8.1.9,11.6.2-.4.6-.8.9-1.1.8-.7,1.8-.9,2.9-.8,1,.1,2,.6,2.6,1.4.7.8.9,1.8.8,2.9-.4,3.7-1,6.6-1.9,8.5-.1.3-.5.5-.8.5v.1Z"/>
                <path class="cls-7" d="M230.3,86.65c-1.4,0-2.8-.6-3.7-1.7-1.8-2-1.5-5.1.5-6.9,0,0,5.5-5,5.6-11.9,0-5.6-3-16.5-4.2-20.2-.5-1.6-.2-3.2.8-4.5.3-.4.9-.5,1.3-.2.4.3.5.9.2,1.3-.6.8-.8,1.9-.5,2.9,1.2,3.8,4.4,14.9,4.3,20.7,0,7.7-6.2,13.1-6.2,13.2-1.3,1.1-1.4,3.1-.3,4.4,1.1,1.2,3.1,1.4,4.4.3,0,0,.2-.2.4-.4.4-.3.9-.3,1.3,0,.3.4.3.9,0,1.3-.3.3-.4.4-.5.5-.9.8-2,1.2-3.2,1.2h-.2Z"/>
                <path class="cls-7" d="M235.3,83.15c-.2,0-.4,0-.6-.2-.4-.3-.4-.9-.1-1.3,2.3-2.7,6.1-8.3,6.1-15.5,0-8-4.4-22.1-4.6-22.7-.5-1.5-2-2.4-3.6-2.1-.5.1-1-.2-1.1-.7s.2-1,.7-1.1c2.5-.5,4.9.9,5.7,3.3.2.6,4.8,15,4.7,23.3,0,7.8-4.2,13.8-6.6,16.6-.2.2-.4.3-.7.3l.1.1Z"/>
              </g>
            </g>
            <g>
              <path class="cls-3" d="M295.5,78.55c-1.6-1-3.8-.6-4.8,1.1-2.4,3.8-5.3,6.1-7.8,6.1-1.1,0-1.9-.4-2.5-1.2-.8-1.1-.5-3,.2-5.9.9-4,2.1-9.6-3-13.6-1.1-.9-2.6-1.6-4.5-1.9l9.6-12c1.4-1.7,1.1-4.2-.6-5.6-1.7-1.4-4.2-1.1-5.6.6l-26.9,33.7c-1.4,1.7-1.1,4.2.6,5.6.7.6,1.6.9,2.5.9s2.3-.5,3.1-1.5l8.8-11c.2-.1.4-.3.6-.4,2-1.7,6.4-4.4,8.2-3,1.4,1.1,1.4,2.5.5,6.6-.7,3.4-1.7,7.6.9,11.3,1.9,2.7,4.9,4.2,8.2,4.2s.1,0,.2,0c2.8,0,8.4-1.3,13.5-9.3,1-1.6.6-3.8-1.1-4.8l-.1.1Z"/>
              <g>
                <path class="cls-7" d="M272.8,64.45c-.2,0-.4,0-.6-.2-.4-.3-.5-.9-.1-1.3l9.4-11.8c.3-.4.9-.5,1.3-.1.4.3.5.9.1,1.3l-9.4,11.8c-.2.2-.4.3-.7.3h0Z"/>
                <path class="cls-7" d="M252.6,87.25c-1.1,0-2.2-.4-3.1-1.1-1-.8-1.7-2-1.8-3.3s.2-2.6,1-3.6l26.9-33.7c.8-1,2-1.7,3.3-1.8s2.6.2,3.6,1c1.4,1.1,2.1,3,1.8,4.8,0,.5-.6.8-1.1.7-.5,0-.8-.6-.7-1.1.2-1.1-.2-2.3-1.1-3-.6-.5-1.5-.7-2.3-.7s-1.6.5-2.1,1.1l-26.9,33.7c-.5.6-.8,1.5-.7,2.3,0,.8.5,1.6,1.1,2.1,1.1.9,2.9.9,4,0,.4-.3.9-.3,1.3,0,.3.4.3.9,0,1.3-.9.8-2,1.2-3.2,1.2v.1Z"/>
                <path class="cls-7" d="M296.7,83.15c-.4-.3-1-.2-1.2.2-4.8,7.2-9.9,8.4-12.4,8.4h-.2c-3,0-5.7-1.4-7.4-3.9-2.4-3.4-1.5-7.2-.8-10.6.9-4.2,1.1-6-.8-7.5-2.2-1.8-7.6.6-9.6,3v.1h0l-7.7,9.7c-.3.4-.2,1,.1,1.3.2.1.4.2.6.2s.5-.1.7-.3l7.7-9.7v-.1h0c1.6-2,6-3.7,7.1-2.8,1,.8,1.1,1.6.2,5.7-.7,3.4-1.8,8,1,12,2,2.9,5.3,4.6,8.9,4.6h.2c2.9,0,8.6-1.3,13.9-9.2.3-.4.2-1-.2-1.2l-.1.1Z"/>
                <path class="cls-7" d="M282.8,86.65c-1.3,0-2.4-.6-3.1-1.6-1-1.4-.6-3.4,0-6.6.9-4,2-9-2.7-12.7-.5-.4-1.1-.8-1.7-1-.5-.2-.7-.7-.5-1.2s.7-.7,1.2-.5c.8.3,1.5.8,2.1,1.3,5.5,4.4,4.2,10.5,3.3,14.5-.6,2.6-.9,4.3-.3,5.1.4.6,1,.9,1.7.8,2.1,0,4.8-2.2,7-5.7.6-1,1.6-1.7,2.8-1.9,1.1-.3,2.3,0,3.3.6,1.2.8,2,2.1,2,3.6,0,.5-.4.9-.9.9s-.9-.4-.9-.9c0-.9-.5-1.6-1.2-2.1-.6-.4-1.3-.5-2-.4s-1.3.6-1.6,1.1c-2.6,4.1-5.7,6.5-8.5,6.5h-.2l.2.2Z"/>
              </g>
            </g>
            <g>
              <g>
                <path class="cls-2" d="M196,87.95c-1.9,0-3.6-1.4-3.9-3.4-.4-2.9-3.5-6.2-4.6-7.2-1.6-1.5-1.8-4-.3-5.6s4-1.8,5.6-.3c.6.6,6.2,5.7,7.2,11.9.3,2.2-1.2,4.2-3.3,4.6h-.7Z"/>
                <path class="cls-2" d="M182.8,57.95c-.7,0-1.4-.2-2.1-.7l-9-6.6c-1.6-1.1-1.9-3.3-.8-4.9,1.1-1.6,3.3-1.9,4.9-.8l9,6.6c1.6,1.1,1.9,3.3.8,4.9-.7.9-1.7,1.4-2.8,1.4v.1Z"/>
                <path class="cls-6" d="M172.3,93.05c-3.4,0-6.8-1.3-9-3.5-1.5-1.6-1.5-4.1,0-5.7,1.6-1.5,4.1-1.5,5.7,0,.7.7,2.7,1.4,4.6.9,1.3-.4,2.1-1.2,2.5-2.7.5-2-.9-3.7-3.2-6.3-1.5-1.7-2.9-3.3-3.5-5.3-1.8-6.1,1-10.7,2.1-11.8,1.6-1.6,4.1-1.6,5.7,0,1.5,1.5,1.6,3.8.2,5.4-.2.3-1,1.9-.3,4.1.2.4,1.2,1.5,1.8,2.3,2.6,2.9,6.5,7.3,5,13.5-1,4.3-4,7.4-8.2,8.5-1.1.3-2.3.5-3.5.5l.1.1ZM177.4,64.25s-.1.1-.2.2c0,0,.1-.1.2-.2Z"/>
                <path class="cls-2" d="M151.7,86.75c-1.5,0-2.9-1-3.4-2.5-.5-1.9.5-3.8,2.4-4.4,4.8-1.4,8.8-6.6,8.9-6.7,1.2-1.5,3.4-1.8,4.9-.7,1.5,1.2,1.8,3.4.7,4.9-.2.3-5.4,7.1-12.4,9.1-.3,0-.7.1-1,.1l-.1.2Z"/>
                <path class="cls-2" d="M197,61.05c-3.8,0-6.8-3.1-6.8-6.8s3.1-6.8,6.8-6.8,6.8,3.1,6.8,6.8-3.1,6.8-6.8,6.8ZM197,51.35c-1.6,0-2.9,1.3-2.9,2.9s1.3,2.9,2.9,2.9,2.9-1.3,2.9-2.9-1.3-2.9-2.9-2.9Z"/>
              </g>
              <g>
                <path class="cls-7" d="M182.8,58.85c-.9,0-1.8-.3-2.6-.9l-9-6.6c-1.8-1.3-2.3-3.6-1.3-5.6.2-.4.8-.6,1.2-.4.4.2.6.8.4,1.2-.6,1.1-.3,2.5.8,3.3l9,6.6c1.1.8,2.8.6,3.6-.6.4-.6.6-1.2.5-1.9s-.5-1.3-1-1.7l-9-6.6c-.7-.5-1.7-.6-2.5-.3-.5.2-1,0-1.2-.5s0-1,.5-1.2c1.4-.6,3-.3,4.2.5l9,6.6c.9.7,1.6,1.7,1.7,2.9.2,1.2-.1,2.3-.8,3.3-.8,1.1-2.2,1.8-3.6,1.8l.1.1Z"/>
                <path class="cls-7" d="M172.3,93.95c-3.7,0-7.3-1.4-9.6-3.8-.6-.6-1-1.3-1.2-2.1-.1-.5.2-1,.6-1.1.5-.1,1,.2,1.1.6.1.5.4,1,.8,1.3,2,2,5.1,3.2,8.3,3.2s2.2-.1,3.2-.4c3.8-1,6.6-3.9,7.5-7.9,1.4-5.8-2.2-9.8-4.8-12.7l-.5-.5c-.5-.5-1-1-1.5-1.9-.9-1.8.3-4.8.3-4.9.4-1,.9-3.5,0-4.4-.1-.1-.3-.3-.5-.4-.4-.3-.5-.8-.3-1.2.3-.4.8-.5,1.2-.3.3.2.5.4.8.6,2.1,2.1.5,6.3.4,6.4-.3.8-.7,2.7-.4,3.4.4.7.7,1.1,1.1,1.5.2.2.4.4.5.6,2.7,3,6.8,7.6,5.2,14.3-1.1,4.6-4.3,8-8.8,9.2-1.2.3-2.4.5-3.7.5h.3ZM172.2,85.95c-1.6,0-3.1-.6-3.9-1.3-1.2-1.2-3.2-1.3-4.4,0-.2.1-.3.3-.4.5-.3.4-.8.5-1.3.2-.4-.3-.5-.8-.2-1.3.2-.3.4-.5.6-.8,1.9-1.9,5.1-1.8,6.9.1.4.4,2.1,1.1,3.7.6,1-.3,1.6-.9,1.9-2,.4-1.5-.6-2.8-3-5.5-1.6-1.8-3-3.4-3.7-5.6-2-6.5,1.1-11.5,2.3-12.7.6-.6,1.4-1.1,2.2-1.3.5-.1,1,.2,1.1.6s-.2,1-.6,1.1c-.5.1-1,.4-1.4.8-1,1-3.6,5.2-1.9,10.9.5,1.8,1.9,3.3,3.3,4.9,2.4,2.7,4,4.7,3.4,7.1-.4,1.8-1.5,2.9-3.1,3.4-.5.1-1.1.2-1.6.2l.1.1Z"/>
                <path class="cls-7" d="M151.7,87.65c-1.9,0-3.7-1.3-4.2-3.2-.3-1.1-.2-2.3.4-3.3.6-1,1.5-1.8,2.6-2.1,4.5-1.3,8.4-6.3,8.4-6.3.1-.1.2-.3.4-.4.3-.4.9-.4,1.3,0,.4.3.4.9,0,1.3,0,0-.1.2-.2.2,0,0-4.2,5.5-9.3,7-.7.2-1.2.6-1.5,1.3-.3.6-.4,1.3-.2,2,.4,1.3,1.9,2.2,3.2,1.8.9-.3,1.9-.6,2.8-1.1.4-.2,1,0,1.2.4s0,1-.4,1.2c-1,.5-2.1.9-3.1,1.2-.4.1-.8.2-1.3.2l-.1-.2Z"/>
                <path class="cls-7" d="M158.5,84.65c-.3,0-.6-.1-.7-.4-.3-.4-.2-1,.2-1.3,3.8-2.6,6.3-5.9,6.4-6.1.9-1.1.6-2.8-.5-3.6-.4-.3-1-.5-1.5-.5s-.9-.4-.9-.9.5-.9.9-.9c.9,0,1.8.3,2.5.9,1.9,1.5,2.3,4.2.8,6.2-.3.4-2.9,3.7-6.8,6.4-.2.1-.3.2-.5.2h.1Z"/>
                <path class="cls-7" d="M197,61.95c-4.3,0-7.7-3.5-7.7-7.7s3.5-7.7,7.7-7.7,1.3,0,2,.3c.5.1.8.6.6,1.1s-.6.8-1.1.6c-.5-.1-1-.2-1.5-.2-3.3,0-5.9,2.7-5.9,5.9s2.7,5.9,5.9,5.9,5.9-2.7,5.9-5.9-.8-3.6-2.3-4.7c-.4-.3-.5-.9-.2-1.3.3-.4.9-.5,1.3-.2,1.9,1.5,3,3.7,3,6.1,0,4.3-3.5,7.7-7.7,7.7v.1ZM197,57.95c-2.1,0-3.8-1.7-3.8-3.8s1.7-3.8,3.8-3.8,3.8,1.7,3.8,3.8-1.7,3.8-3.8,3.8ZM197,52.25c-1.1,0-2,.9-2,2s.9,2,2,2,2-.9,2-2-.9-2-2-2Z"/>
                <path class="cls-7" d="M196,88.35c-.4,0-.7,0-1.1-.1-.5-.1-.8-.6-.6-1.1.1-.5.6-.8,1.1-.6.3,0,.7.1,1,0,.7-.1,1.3-.5,1.7-1,.4-.6.6-1.2.5-1.9-.9-5.7-6.1-10.5-6.7-11.1-.5-.4-1.1-.7-1.7-.7-.5,0-.9-.4-.9-.9s.4-.9.9-.9c1.1,0,2.1.4,2.9,1.1.6.6,6.3,5.8,7.3,12.1.2,1.2-.1,2.3-.8,3.3s-1.7,1.6-2.9,1.8c-.2,0-.5,0-.7,0Z"/>
                <path class="cls-7" d="M193.1,86.75c-.3,0-.6-.1-.7-.4-.1-.2-.2-.3-.3-.5-.2-.4-.3-.8-.4-1.3-.4-2.8-3.4-6-4.5-6.9-1.8-1.6-2-4.4-.3-6.2.1-.1.2-.2.3-.3.4-.3.9-.3,1.3,0,.3.4.3.9,0,1.3,0,0-.1.1-.2.2-1,1.1-.9,2.7.2,3.7,0,0,4.4,4,5,8,0,.3.1.5.2.8,0,.1.1.2.2.3.3.4.2,1-.2,1.3-.2.1-.3.2-.5.2l-.1-.2Z"/>
              </g>
            </g>
          </g>
          <g>
            <g>
              <path class="cls-3" d="M291,33.95c-.8,0-1.5-.7-1.5-1.5V3.65c0-.8.7-1.5,1.5-1.5s1.5.7,1.5,1.5v28.8c0,.8-.7,1.5-1.5,1.5Z"/>
              <path class="cls-3" d="M118.3,39.55c-.8,0-1.5-.7-1.5-1.5v-12.3c0-.8.7-1.5,1.5-1.5h7.8c.8,0,1.5.7,1.5,1.5s-.7,1.5-1.5,1.5h-6.3v10.8c0,.8-.7,1.5-1.5,1.5Z"/>
              <path class="cls-3" d="M278.8,26.75h-92.9c-.8,0-1.5-.7-1.5-1.5s.7-1.5,1.5-1.5h92.9c.8,0,1.5.7,1.5,1.5s-.7,1.5-1.5,1.5Z"/>
              <path class="cls-3" d="M130.5,34.85h-2.5c-.8,0-1.5-.7-1.5-1.5s.7-1.5,1.5-1.5h2.5c10.2,0,19.8-3.5,31.1-11.5,5-3.5,9-5.8,13.2-7.5.8-.3,1.6,0,1.9.8.3.8,0,1.6-.8,1.9-3.9,1.6-7.8,3.8-12.5,7.1-11.8,8.3-21.9,12-32.8,12l-.1.2Z"/>
            </g>
            <g>
              <path class="cls-7" d="M137.9,34.95l.6,10.8-10.1.7c-1.1,0-1.4-.7-1.4-1.4l7.7-.6-.6-7.8-6.2.5c-1.1,0-1.2-.7-1.3-1.4l11.3-.8Z"/>
              <path class="cls-7" d="M140.9,33.65c1.5.1,3,.3,4.4.4l-.3,2.3c-1.6,0-3.1-.2-4.4-.3l.3-2.3v-.1ZM144.3,42.45c3.5-2.4,6.2-5.6,7.6-9.5h.5c.2,4.6-2.2,9.3-5.9,12.1l-2.2-2.6h0Z"/>
              <path class="cls-7" d="M167.5,32.35l.9,1.2c-1.3,1-4.4,3.3-5.6,4.2-1.5,1.1-2.8,1.2-4.3-.9l-5.1-7.2,2.8-2,2.6,3.6c1.4-1.6,2.3-3,3.2-5.2l2.3,1.6c-1.2,1.7-3.4,3.6-4.9,4.5l2,2.8c.8,1.2,1.2,1.1,2.1.5l4.1-3-.1-.1ZM160.9,23.65c.9.1,2,.3,2.8.7l-.8,1.4c-.7-.5-1.4-1.1-2.1-1.6l.2-.5h-.1ZM161.9,21.95c1,0,1.9.2,2.7.4l-.7,1.5c-.7-.5-1.6-1-2.3-1.4l.2-.5h.1Z"/>
              <path class="cls-7" d="M176,16.75l.7,1.3-7.3,3.7c-.6.3-1.2,0-1.6-.9l8.2-4.2v.1ZM171.2,29.95l-1.2-2.4,10.3-5.3,1.2,2.4-10.2,5.3h-.1Z"/>
              <path class="cls-7" d="M183.4,13.95l11.4-.3c0,5.2-2.8,9.7-6.8,11.5l-.3-.4c1.8-2.6,3.1-5.6,3.1-9.5h-5.8c-1.2.2-1.5-.4-1.5-1.2h0l-.1-.1Z"/>
              <path class="cls-7" d="M206.4,17.25h2.5v1.4h-2.5v7h-2.9v-3.5c-1.6,1.4-3.4,2.3-5.2,2.7l-.2-.4c2.3-1.9,3.4-3.5,4.6-5.8h-3.4c-.9,0-.9-.8-.9-1.4h5v-2.2h2.9v2.3l.1-.1Z"/>
              <path class="cls-7" d="M213.3,25.75v-13.3h3v13.3h-3ZM221.3,21.85c-1.5-1.1-2.6-1.9-4.5-2.9l.4-1.1c2.2.4,3.6.8,5.5,1.6l-1.5,2.4h.1Z"/>
              <path class="cls-7" d="M225.4,15.35c-1.2,0-1.5-.6-1.5-1.4h0l11-.2c-.2,5.2-3,9.6-7.1,11.3l-.3-.4c1.9-2.5,3.2-5.5,3.3-9.4h-5.4v.1ZM238.8,12.55c0,1.1-.9,1.9-2,1.9s-1.9-.8-1.9-1.9.7-1.9,2-1.9,1.9,1,1.9,2v-.1ZM237.5,12.45c0-.4-.3-1-1.1-.7-.4.2-.4.8-.2,1.1s.6.4,1,.2c.2,0,.3-.3.3-.6Z"/>
              <path class="cls-7" d="M243.6,12.75v7.1h-2.6c-.1-2.1-.2-4.7-.2-7.1h2.8ZM250.7,12.65c0,6.7-1.3,10.9-5.5,13.2l-.4-.4c2.1-3.5,2.5-6.7,2.4-12.9h3.5v.1Z"/>
              <path class="cls-7" d="M255,12.85c1.4.5,2.8,1,4.2,1.5l-.9,2.2c-1.5-.5-3-1-4.2-1.5l.9-2.2h0ZM256,22.25c4.1-1.4,7.4-3.7,9.8-7.2l.5.2c-1,4.4-4.5,8.4-8.8,10.1l-1.5-3.1Z"/>
              <path class="cls-7" d="M270.4,25.75v-13.3h3v13.3h-3ZM278.4,21.85c-1.5-1.1-2.6-1.9-4.5-2.9l.4-1.1c2.2.4,3.6.8,5.5,1.6l-1.5,2.4h.1Z"/>
            </g>
            <g>
              <path class="cls-7" d="M130.5,55.45h-7.3c-.7,0-1.2-.6-1.2-1.2s.6-1.2,1.2-1.2h7.3c10.5,0,24-4.7,31.3-10.9,8.7-7.3,17.7-10.9,27.4-10.9h94.9c.7,0,1.2.6,1.2,1.2s-.6,1.2-1.2,1.2h-94.9c-9.1,0-17.6,3.4-25.8,10.3-7.8,6.6-21.9,11.5-33,11.5h.1Z"/>
              <path class="cls-7" d="M119.9,40.05c-.7,0-1.2-.6-1.2-1.2v-9.7c0-1.5,1.2-2.7,2.7-2.7h9.2c10.3,0,19.9-3.6,31.2-11.5,7.2-5.1,16.1-10.3,27.5-10.3h96c.7,0,1.2.6,1.2,1.2v20.8c0,.7-.6,1.2-1.2,1.2s-1.2-.6-1.2-1.2V7.05h-94.7c-10.7,0-18.9,4.7-26.1,9.8-11.8,8.3-21.8,12-32.6,12h-9.2s-.2,0-.2.2v9.7c0,.7-.6,1.2-1.2,1.2l-.2.1Z"/>
              <path class="cls-7" d="M289.4,22.95c-.7,0-1.2-.6-1.2-1.2V2.95s0-.2-.2-.2h-15.6c-.7,0-1.2-.6-1.2-1.2s.6-1.2,1.2-1.2h15.6c1.5,0,2.7,1.2,2.7,2.7v18.8c0,.7-.6,1.2-1.2,1.2l-.1-.1Z"/>
              <path class="cls-7" d="M115.9,36.05c-.7,0-1.2-.6-1.2-1.2v-9.7c0-1.5,1.2-2.7,2.7-2.7h9.1c.7,0,1.2.6,1.2,1.2s-.6,1.2-1.2,1.2h-9.1s-.2,0-.2.2v9.7c0,.7-.6,1.2-1.2,1.2l-.1.1Z"/>
            </g>
          </g>
          <g>
            <g>
              <path class="cls-3" d="M71.3,58.25l.4-2.6c-.1,0-.2-.2-.3-.3-1.6-1.1-3.8-.6-4.9,1l-22.5,33.8c-1.1,1.6-.6,3.8,1,4.9.6.4,1.3.6,1.9.6,1.1,0,2.2-.5,2.9-1.6l18.4-27.7,2.9-8.1h.2Z"/>
              <path class="cls-4" d="M95,95.55c-1.1,0-2.2-.5-2.9-1.5l-18.5-26.2c-1.1-1.6-.7-3.8.8-4.9,1.6-1.1,3.8-.7,4.9.8l18.5,26.2c1.1,1.6.7,3.8-.8,4.9-.6.4-1.3.6-2,.6v.1Z"/>
            </g>
            <g>
              <path class="cls-7" d="M4.6,27.35c0,.2.2.3.4.3h.8c2.7,0,5.9-.6,9.4-1.7,3.8-1.2,6.9-2.8,9.2-4.6.2-.1.2-.3.2-.5s-1.2-4-2.9-7.1c-1.9-3.4-5.5-4.1-11.1-2.3-5.6,1.8-8.1,4.5-7.6,8.4.4,3.5,1.7,7.3,1.8,7.4l-.2.1Z"/>
              <path class="cls-7" d="M16.7,30.65c6.4-2.1,11.5-5.4,12.6-6.8,1.3-1.7,1.1-3,.4-3.5-.5-.4-1.4-.4-2.3.7-1.6,2-6.9,5-11.8,6.6s-10.9,2.3-13.4,1.6c-1.3-.4-2.1.1-2.3.8-.2.8.4,2,2.4,2.6.5.1,1.3.2,2.3.2,2.8,0,7.3-.6,12-2.1l.1-.1Z"/>
              <path class="cls-7" d="M16.2,45.05c.1,0,.2.1.3.1.3,0,.7-.2,1-.4h.1c.1.1.4.2.7.2.4,0,.9-.3,1.2-.6,0,0,.2-.1.2-.2h.1c.3,0,.7.1,1.1,0s.8-.5,1-.7h.3c.4,0,1,0,1.4-.2.3-.2.4-.5.4-.7h.1c.5,0,1.1,0,1.3-.5,0-.3.2-.5-2.8-4.1-.1-.2-.4-.2-.6,0,0,0-1.1.7-2.8,1.2s-3,.6-3,.6c-.2,0-.4.2-.4.4-.2,4.7,0,4.8.2,5l.2-.1Z"/>
              <path class="cls-7" d="M29,46.35c-3,1.6-4.9,4.3-5.5,5.2-1.1-.4-4.2-1.4-7.5-1h-.4c-.7.1-1.2.2-1.6.6-.3.4-.3,1,0,2.1.3,1.4,1.3,3.4,2,4.9.4.8.7,1.4.8,1.7.1.4.4.7.8.9h.5c.5,0,1-.2,1.8-.6,2.8-1.7,4.2-4.4,4.7-5.5,1.1.7,3.8,2,7.1,1.7,1.1-.1,1.8-.4,2.1-.9.2-.3.3-.7.1-1.2,0-.3-.2-1-.4-1.9-.3-1.6-.7-3.8-1.3-5.2-.4-1-.8-1.5-1.2-1.6-.5-.2-1,.1-1.6.4l-.3.2-.1.2Z"/>
              <path class="cls-7" d="M29.7,68.75c-.1,0-.3-.1-.4,0-.1,0-14.6,4.6-19,2.8-1.9-.8-2.8-3.9-2-7,.1-.5-.2-.7-.3-.8-.7-.4-2,.7-2,.8-.5.5-3,3-3.3,6.6-.1,1.3.5,3.4,2.2,5.1,1.2,1.2,3.3,2.5,6.7,2.5s1,0,1.6,0c9.3-1,16.7-6.3,16.8-6.4.1,0,.2-.3.2-.4l-.2-2.6c0-.1,0-.3-.2-.4l-.1-.2Z"/>
              <path class="cls-7" d="M34.6,66.25c-.5-3.6-1.3-5.1-1.3-5.2,0-.2-.3-.3-.5-.3l-2.5.2c-.2,0-.3,0-.4.2s-.1.3,0,.5c0,0,1,2.7,1.4,4.9.3,1.6.3,4.5.3,4.5,0,.2,0,.3.2.4,0,0,.2.1.3.1h.1l1.5-.3c.1,0,.2,0,.3-.2.1-.1,1.1-1.4.6-4.9v.1Z"/>
            </g>
            <g>
              <path class="cls-7" d="M94.4,74.15h-50.2c-2.2,0-4-1.8-4-4s1.8-4,4-4h50.2c2.2,0,4,1.8,4,4s-1.8,4-4,4Z"/>
              <path class="cls-7" d="M89.4,18.85h-43.4c-5,0-9.1,4.1-9.1,9.1v29.5c0,2.1,1.7,3.9,3.8,4,0,0,2.4.1,5.3.1s4-1.8,4-4-1.8-4-4-4-.2,0-.3,0c-.5,0-.8-.4-.8-.8h0v-24.8c0-.6.5-1.1,1.1-1.1h43.4c.6,0,1.1.5,1.1,1.1v24.8h0c0,.5-.4.8-.8.8h-.3c-2.2,0-4,1.8-4,4s1.8,4,4,4,5.2-.1,5.3-.1c2.1-.1,3.8-1.9,3.8-4v-29.5c0-5-4.1-9.1-9.1-9.1Z"/>
              <path class="cls-7" d="M79.4,33.55h-19.1v-1.8c0-2.2-1.8-4-4-4s-4,1.8-4,4v25.6c0,2.2,1.8,4,4,4h14.7c.4,0,.7.5.6.9h0l-7.9,21.8h0c-.3.4-.8.5-1.2.3h0l-4.6-2.6c-1.9-1.1-4.4-.4-5.4,1.5-1.1,1.9-.4,4.4,1.5,5.4l11.3,6.3c.6.3,1.3.5,2,.5s.9,0,1.4-.3c1.1-.4,2-1.3,2.4-2.4l12.4-34.2c.4-1.2.3-2.6-.5-3.7-.7-1.1-2-1.7-3.3-1.7h-18.5c-.5,0-.8-.4-.8-.8v-11.2c0-.4.4-.8.8-.8h16.4c.4,0,.8.4.8.8h0v.8c0,1.9,1.6,3.5,3.5,3.5s3.5-1.6,3.5-3.5v-1.7c0-3.9-2.6-7-5.9-7l-.1.3Z"/>
            </g>
            <g>
              <circle class="cls-6" cx="69.1" cy="47.05" r="4.3"/>
              <polygon class="cls-6" points="103.2 35.05 105.4 42.95 112.5 38.95 108.5 46.05 116.4 48.25 108.5 50.45 112.5 57.55 105.4 53.55 103.2 61.45 101 53.55 93.9 57.55 97.9 50.45 90 48.25 97.9 46.05 93.9 38.95 101 42.95 103.2 35.05"/>
              <path class="cls-6" d="M89.3,47.05c-3.6.6-4.1,1.1-4.6,5.3-.5-4.2-1-4.7-4.6-5.3,3.6-.6,4.1-1.1,4.6-5.3.5,4.2,1,4.7,4.6,5.3Z"/>
            </g>
          </g>
        </g>
      </g>
    </g>
  </g>
</svg>