<?xml version="1.0" encoding="UTF-8"?>
<svg xmlns="http://www.w3.org/2000/svg" version="1.1" viewBox="0 0 400 400">
  <defs>
    <style>
      .cls-1 {
        fill: #fff;
      }
    </style>
  </defs>
  <!-- Generator: Adobe Illustrator 28.7.1, SVG Export Plug-In . SVG Version: 1.2.0 Build 142)  -->
  <g>
    <g id="_レイヤー_1" data-name="レイヤー_1">
      <path class="cls-1" d="M150.91,171.75c0-9.49,7.69-17.2,17.2-17.2s17.2,7.69,17.2,17.2-7.69,17.2-17.2,17.2-17.2-7.69-17.2-17.2ZM168.24,224.16l17.83,21.38c1.81,2.17,5.13,2.17,6.95,0l37.93-45.48c1.81-2.17,5.13-2.17,6.95,0l24.31,29.15v-87.81h-124.38v110.92l23.48-28.16c1.8-2.17,5.12-2.17,6.93,0h0ZM347.05,357.22c0,8-6.51,14.51-14.51,14.51H67.46c-8,0-14.51-6.51-14.51-14.51V42.78c0-8,6.51-14.51,14.51-14.51h265.08c8,0,14.51,6.51,14.51,14.51v314.44ZM351.48,1H48.52c-10.28,0-18.66,8.37-18.66,18.66v360.69c0,10.28,8.37,18.66,18.66,18.66h302.97c10.28,0,18.66-8.37,18.66-18.66V19.66c0-10.28-8.37-18.66-18.66-18.66ZM117.08,139.33c0-10.28,8.37-18.66,18.66-18.66h128.52c10.28,0,18.66,8.37,18.66,18.66v121.33c0,10.28-8.37,18.66-18.66,18.66h-128.52c-10.28,0-18.66-8.37-18.66-18.66v-121.33ZM73.68,351h252.64V49H73.68v302Z"/>
    </g>
  </g>
</svg>