<?xml version="1.0" encoding="UTF-8"?>
<svg xmlns="http://www.w3.org/2000/svg" version="1.1" viewBox="0 0 400 400">
  <defs>
    <style>
      .cls-1 {
        fill: #fff;
      }
    </style>
  </defs>
  <!-- Generator: Adobe Illustrator 28.7.1, SVG Export Plug-In . SVG Version: 1.2.0 Build 142)  -->
  <g>
    <g id="_レイヤー_1" data-name="レイヤー_1">
      <g>
        <rect class="cls-1" x="305.73" y="102.01" width="30.55" height="136.08"/>
        <polygon class="cls-1" points="293.83 5.21 235.11 5.21 235.11 36.15 63.72 36.15 63.72 57.97 293.83 57.97 293.83 5.21"/>
        <polygon class="cls-1" points="293.83 248.4 216.46 248.4 216.46 263.87 147.83 263.87 147.83 248.4 63.72 248.4 63.72 290.85 293.83 290.85 293.83 248.4"/>
        <polygon class="cls-1" points="293.83 301.17 216.46 301.17 216.46 316.64 147.83 316.64 147.83 301.17 63.72 301.17 63.72 343.22 293.83 343.22 293.83 301.17"/>
        <polygon class="cls-1" points="293.83 353.53 216.46 353.53 216.46 369.01 147.83 369.01 147.83 353.53 63.72 353.53 63.72 394.79 293.83 394.79 293.83 353.53"/>
        <path class="cls-1" d="M293.83,68.29H63.72v169.8h230.5l-.4-169.8h0ZM278.75,99.63h-58.32v-17.06h58.32v17.06Z"/>
      </g>
    </g>
  </g>
</svg>