<?xml version="1.0" encoding="UTF-8"?>
<svg xmlns="http://www.w3.org/2000/svg" version="1.1" viewBox="0 0 400 400">
  <defs>
    <style>
      .cls-1 {
        fill: #fff;
      }
    </style>
  </defs>
  <!-- Generator: Adobe Illustrator 28.7.1, SVG Export Plug-In . SVG Version: 1.2.0 Build 142)  -->
  <g>
    <g id="_レイヤー_1" data-name="レイヤー_1">
      <path class="cls-1" d="M284.98,108.77c0-11.04-3.68-20.23-11.04-26.86-7.36-6.62-18.03-9.93-30.9-9.93-12.14,0-22.07,2.94-29.43,8.46-6.62,5.15-9.93,12.14-10.67,21.71,0,2.21,1.47,4.05,3.68,4.05l17.66.37c2.94,0,5.52-1.84,6.25-4.41.74-2.21,1.84-4.05,3.31-5.52,2.58-2.21,5.52-3.31,9.2-3.31,4.41,0,8.09,1.47,10.3,4.05,2.58,2.58,3.68,6.25,3.68,11.04,0,4.41-1.1,8.09-3.31,11.77-2.21,3.31-4.78,6.25-8.46,8.46-6.99,4.78-11.77,9.2-15.08,13.61-2.21,2.94-3.31,6.99-3.68,12.51-.74,2.94,1.84,4.78,4.41,4.78h19.13c2.21,0,4.05-1.47,4.41-3.68.37-2.94.74-5.15,1.84-6.99,1.1-2.58,3.68-5.15,6.99-7.36,6.25-3.31,11.4-7.73,15.82-13.61,4.05-5.89,5.89-12.51,5.89-19.13h0ZM253.71,177.93c0-3.31-2.58-5.89-5.89-5.89h-15.82c-3.31,0-5.89,2.58-5.89,5.89v9.93c0,3.31,2.58,5.89,5.89,5.89h15.82c3.31,0,5.89-2.58,5.89-5.89v-9.93ZM379.9,74.55v117.36c0,18.76-13.61,34.21-30.9,37.89v34.58c0,4.05-1.84,7.73-4.41,10.67-2.94,2.21-6.62,3.68-10.3,3.68s-7.36-1.47-10.3-4.41l-44.15-43.04h-132.81c-21.71,0-38.63-17.66-38.63-38.63v-117.72c-.37-22.07,17.29-39.36,38.63-39.36h193.88c21.34-.37,39,17.29,39,39h0ZM269.16,256.66l22.44,22.44c-1.1,20.6-18.39,36.42-38.63,36.42H119.8l-44.15,44.51c-2.58,2.94-6.25,4.41-9.93,4.41-8.09,0-14.72-6.62-14.72-14.72v-34.58c-17.66-3.68-30.9-19.5-30.9-37.89v-117.72c0-21.71,17.66-38.63,38.63-38.63h23.54v27.22h-23.54c-6.62,0-11.77,5.15-11.77,11.4v117.36c0,6.25,5.15,11.77,11.77,11.77h19.5v30.53l30.53-30.53h144.21c6.25,0,11.77-5.15,11.77-11.77v-20.23h4.41Z"/>
    </g>
  </g>
</svg>