<?xml version="1.0" encoding="UTF-8"?>
<svg xmlns="http://www.w3.org/2000/svg" version="1.1" viewBox="0 0 400 400">
  <defs>
    <style>
      .cls-1 {
        fill: #fff;
      }
    </style>
  </defs>
  <!-- Generator: Adobe Illustrator 28.7.1, SVG Export Plug-In . SVG Version: 1.2.0 Build 142)  -->
  <g>
    <g id="_レイヤー_1" data-name="レイヤー_1">
      <path class="cls-1" d="M351.2,1.84H48.8c-10.28,0-18.64,8.36-18.64,18.64v359.04c0,10.28,8.36,18.64,18.64,18.64h302.41c10.28,0,18.64-8.36,18.64-18.64V20.48c0-10.28-8.36-18.64-18.64-18.64ZM100.28,356.14c0,2.01-1.67,3.69-3.69,3.69h-17.08c-2.01,0-3.69-1.67-3.69-3.69v-15.73c0-2.01,1.67-3.69,3.69-3.69h17.08c2.01,0,3.69,1.67,3.69,3.69v15.73ZM100.28,317.97c0,2.01-1.67,3.69-3.69,3.69h-17.08c-2.01,0-3.69-1.67-3.69-3.69v-15.73c0-2.01,1.67-3.69,3.69-3.69h17.08c2.01,0,3.69,1.67,3.69,3.69v15.73ZM136.74,356.14c0,2.01-1.67,3.69-3.69,3.69h-17.08c-2.01,0-3.69-1.67-3.69-3.69v-15.73c0-2.01,1.67-3.69,3.69-3.69h17.08c2.01,0,3.69,1.67,3.69,3.69v15.73ZM136.74,317.97c0,2.01-1.67,3.69-3.69,3.69h-17.08c-2.01,0-3.69-1.67-3.69-3.69v-15.73c0-2.01,1.67-3.69,3.69-3.69h17.08c2.01,0,3.69,1.67,3.69,3.69v15.73ZM174.85,356.14c0,2.01-1.67,3.69-3.69,3.69h-17.08c-2.01,0-3.69-1.67-3.69-3.69v-15.73c0-2.01,1.67-3.69,3.69-3.69h17.08c2.01,0,3.69,1.67,3.69,3.69v15.73ZM174.85,317.97c0,2.01-1.67,3.69-3.69,3.69h-17.08c-2.01,0-3.69-1.67-3.69-3.69v-15.73c0-2.01,1.67-3.69,3.69-3.69h17.08c2.01,0,3.69,1.67,3.69,3.69v15.73ZM174.85,279.8c0,2.01-1.67,3.69-3.69,3.69h-17.08c-2.01,0-3.69-1.67-3.69-3.69v-15.73c0-2.01,1.67-3.69,3.69-3.69h17.08c2.01,0,3.69,1.67,3.69,3.69v15.73ZM212.69,356.14c0,2.01-1.67,3.69-3.69,3.69h-17.08c-2.01,0-3.69-1.67-3.69-3.69v-15.73c0-2.01,1.67-3.69,3.69-3.69h17.08c2.01,0,3.69,1.67,3.69,3.69v15.73ZM212.69,317.97c0,2.01-1.67,3.69-3.69,3.69h-17.08c-2.01,0-3.69-1.67-3.69-3.69v-15.73c0-2.01,1.67-3.69,3.69-3.69h17.08c2.01,0,3.69,1.67,3.69,3.69v15.73ZM212.69,279.8c0,2.01-1.67,3.69-3.69,3.69h-17.08c-2.01,0-3.69-1.67-3.69-3.69v-15.73c0-2.01,1.67-3.69,3.69-3.69h17.08c2.01,0,3.69,1.67,3.69,3.69v15.73ZM250.53,356.14c0,2.01-1.67,3.69-3.69,3.69h-17.08c-2.01,0-3.69-1.67-3.69-3.69v-15.73c0-2.01,1.67-3.69,3.69-3.69h17.08c2.01,0,3.69,1.67,3.69,3.69v15.73ZM250.53,317.96c0,2.01-1.67,3.69-3.69,3.69h-17.08c-2.01.01-3.69-1.66-3.69-3.68v-15.73c0-2.01,1.67-3.69,3.69-3.69h17.08c2.01,0,3.69,1.67,3.69,3.67v15.73ZM250.53,279.79c0,2.01-1.67,3.69-3.69,3.69h-17.08c-2.01.01-3.69-1.66-3.69-3.68v-15.73c0-2.01,1.67-3.69,3.69-3.69h17.08c2.01,0,3.69,1.67,3.69,3.68v15.73ZM288.37,317.97c0,2.01-1.67,3.69-3.69,3.69h-17.08c-2.01,0-3.69-1.67-3.69-3.69v-15.73c0-2.01,1.67-3.69,3.69-3.69h17.08c2,0,3.68,1.67,3.69,3.69v15.73ZM288.37,279.8c0,2.01-1.67,3.69-3.69,3.69h-17.08c-2.01,0-3.69-1.67-3.69-3.69v-15.73c0-2.01,1.67-3.69,3.69-3.69h17.08c2,0,3.68,1.67,3.69,3.69v15.73ZM326.21,317.96c0,2.01-1.67,3.69-3.69,3.69h-17.08c-2.01,0-3.69-1.67-3.69-3.69v-15.73c0-2.01,1.67-3.69,3.69-3.69h17.08c2.01,0,3.69,1.67,3.69,3.69v15.73ZM326.21,280.13c0,2.01-1.67,3.69-3.69,3.69h-17.08c-2.01,0-3.69-1.67-3.69-3.69v-15.73c0-2.01,1.67-3.69,3.69-3.69h17.08c2.01,0,3.69,1.67,3.69,3.69v15.73ZM326.21,229.4H75.82V42.13h250.39v187.27Z"/>
    </g>
  </g>
</svg>