<?xml version="1.0" encoding="UTF-8"?>
<svg xmlns="http://www.w3.org/2000/svg" version="1.1" viewBox="0 0 500 440">
  <defs>
    <style>
      .cls-1 {
        fill: #ffeb73;
      }

      .cls-2 {
        fill: #fff;
      }
    </style>
  </defs>
  <!-- Generator: Adobe Illustrator 28.7.1, SVG Export Plug-In . SVG Version: 1.2.0 Build 142)  -->
  <g>
    <g id="_レイヤー_1" data-name="レイヤー_1">
      <g>
        <g>
          <path class="cls-1" d="M72.3,274.1h.9c0-.2-.1-.4-.1-.6,0-1.3,1.1-2.4,2.4-2.4s2.4,1.1,2.4,2.4c0,1.4-1.1,2.4-2.4,2.4-.2,0-.4,0-.5-.1l-.1.4c-.5,2.2-1.5,5.5-3.2,7.7-1.9,2.5-4.6,4.5-8.4,5.7l-1.8-2c4.1-1,6.5-2.8,8.2-5,1.5-1.9,2.4-4.6,2.6-6.5h-10.3c-.9,0-1.8,0-2.3.1v-2.2c.6.1,1.6.1,2.3.1h10.3ZM76.8,273.5c0-.7-.6-1.3-1.3-1.3s-1.3.6-1.3,1.3.6,1.3,1.3,1.3,1.3-.6,1.3-1.3Z"/>
          <path class="cls-1" d="M86.3,272.8c0,.4-.1,1-.1,1.6v7.1c0,.5,0,1.3.1,1.7h-2.5c0-.4.1-1.1.1-1.7v-7.1c0-.4,0-1.1-.1-1.6h2.5ZM96,272.6c0,.5-.1,1.2-.1,1.9v3.8c0,4.8-.8,6.6-2.3,8.4-1.4,1.6-3.5,2.6-5,3.1l-1.8-1.8c2-.5,3.8-1.3,5.1-2.8,1.5-1.7,1.8-3.3,1.8-7v-3.6c0-.8-.1-1.4-.1-1.9h2.4v-.1Z"/>
          <path class="cls-1" d="M112.6,284.2c3.4-2.1,6-5.3,7.3-8l1.3,2.3c-1.5,2.7-4.1,5.6-7.4,7.6-2.1,1.3-4.8,2.6-8.1,3.1l-1.4-2.2c3.5-.3,6.3-1.5,8.3-2.8ZM111.9,277.5l-1.7,1.7c-1.1-1.1-3.7-3.4-5.3-4.5l1.5-1.6c1.6,1,4.3,3.2,5.5,4.4Z"/>
          <path class="cls-1" d="M140.8,283.6c-2.2-1.2-5.7-2.5-8-3.3v6.5c0,.7.1,1.9.2,2.7h-2.6c.1-.7.2-1.9.2-2.7v-12.2c0-.7-.1-1.6-.2-2.4h2.6c-.1.7-.1,1.6-.1,2.4v3.3c2.8.8,6.8,2.3,8.9,3.4l-1,2.3Z"/>
          <path class="cls-1" d="M159.2,278.5c1.9,1.5,4.6,2.7,7,3.4-.4.4-1,1.1-1.3,1.6-.6-.2-1.2-.4-1.7-.7v7.5h-2v-.6h-9.6v.7h-1.9v-7.7c-.7.3-1.3.6-2,.8-.3-.4-.8-1.1-1.2-1.5,2.4-.7,5-2.1,6.8-3.6h-6.3v-1.6h4.3c-.3-.7-.9-1.7-1.4-2.4l1.1-.4c-.8,0-1.6.1-2.4.1,0-.4-.2-1.1-.4-1.5,5-.1,10.9-.6,14.3-1.3l1.3,1.4c-1.9.4-4.2.7-6.6.9v3.2h2.6l-.7-.2c.5-.9,1.2-2.2,1.6-3.2l2.1.6c-.6,1-1.3,2-1.8,2.8h4.5v1.6h-6.3v.1ZM162.1,282.3c-1.8-.9-3.5-2.1-4.8-3.4v3.1h-1.9v-3c-1.3,1.2-2.9,2.4-4.6,3.3h11.3ZM155.4,283.9h-3.7v1.5h3.7v-1.5ZM151.7,288.3h3.7v-1.6h-3.7v1.6ZM155.4,273.8c-1.1.1-2.3.1-3.4.2.6.8,1.2,1.8,1.5,2.5l-.9.3h2.8v-3h0ZM161.3,283.9h-4v1.5h4v-1.5ZM161.3,288.3v-1.6h-4v1.6h4Z"/>
          <path class="cls-1" d="M175.6,281.4c-.2.5-.3,1.1-.5,1.6h10.4s0,.6-.1.9c-.5,3.6-1,5.2-1.8,5.9-.5.5-1.1.6-2,.7h-3.6c0-.6-.3-1.4-.7-1.9,1.5.1,3,.1,3.6.1.5,0,.8,0,1-.2.5-.4.9-1.5,1.2-3.7h-8.7c-.2.5-.3.9-.5,1.3l-2.1-.3c.5-1.1,1.1-2.8,1.6-4.3h-4.3v-1.8h18.8v1.8h-12.3v-.1ZM185.4,278.2h-13.5v-6.3h13.5v6.3ZM183.4,273.6h-9.5v2.9h9.5v-2.9Z"/>
        </g>
        <g>
          <path class="cls-2" d="M271.8,289.4h-11c-3.9,0-7.1,3.2-7.1,7.1s3.2,7.1,7.1,7.1h11c3.9,0,7.1-3.2,7.1-7.1-.1-4-3.2-7.1-7.1-7.1Z"/>
          <path class="cls-2" d="M271.8,220.5h-11c-3.9,0-7.1,3.2-7.1,7.1s3.2,7.1,7.1,7.1h11c3.9,0,7.1-3.2,7.1-7.1s-3.2-7.1-7.1-7.1Z"/>
          <path class="cls-2" d="M271.8,356.3h-11c-3.9,0-7.1,3.2-7.1,7.1s3.2,7.1,7.1,7.1h11c3.9,0,7.1-3.2,7.1-7.1-.1-3.9-3.2-7.1-7.1-7.1Z"/>
          <path class="cls-2" d="M432,398.1h-195.5v-52.6h160.4c3.9,0,7.1-3.2,7.1-7.1s-3.2-7.1-7.1-7.1h-160.4v-53.5h160.4c3.9,0,7.1-3.2,7.1-7.1s-3.2-7.1-7.1-7.1h-160.4v-53.4h160.4c3.9,0,7.1-3.2,7.1-7.1s-3.2-7.1-7.1-7.1h-160.4v-67.9h195.5v270ZM405.5,421.9h-18.8v-9.6h18.8v9.6ZM281.7,421.9h-18.8v-9.6h18.8v9.6ZM236.5,89.2c0-3.9,3.2-7.1,7.1-7.1h92c1.9,0,3.7.7,5,2.1,1.3,1.3,2.1,3.1,2.1,5v24.8h-106.2v-24.8ZM445.6,189.7v-68.6c0-3.9-3.2-7.1-7.1-7.1h-81.7v-11.7h82.2c3.9-.1,7-3.2,7.1-7.1,0-3.9-3.2-7.1-7.1-7.1h-82.4c-.6-11.2-9.9-20-21.1-20.1h-92c-11.7,0-21.2,9.5-21.2,21.2v86.2h-18.8c-.8-.1-1.6-.1-2.4,0l-30-19.4c-3.3-2.1-7.6-1.3-9.8,2-2.1,3.3-1.3,7.7,2,9.9l59,38.9v198.2c0,3.9,3.2,7.1,7.1,7.1h19.3v16.8c0,3.9,3.2,7.1,7.1,7.1h33c3.9,0,7.1-3.2,7.1-7.1v-16.7h76.7v16.7c0,3.9,3.2,7.1,7.1,7.1h33c3.9,0,7.1-3.2,7.1-7.1v-16.7h19.2c3.9,0,7.1-3.2,7.1-7.1l-.5-215.4Z"/>
          <path class="cls-2" d="M291.3,88.1h-14.2c-3.9,0-7.1,3.2-7.1,7.1s3.2,7.1,7.1,7.1h14.2c3.9,0,7.1-3.2,7.1-7.1s-3.2-7.1-7.1-7.1Z"/>
        </g>
        <g>
          <g>
            <path class="cls-2" d="M122.2,12.9c-15.8,0-30.9,6.3-42.1,17.4-11.1,11.2-17.4,26.4-17.4,42.2s6.3,30.9,17.4,42.1c11.2,11.2,26.3,17.4,42.1,17.4s30.9-6.3,42.1-17.4c11.2-11.2,17.4-26.3,17.4-42.1s-6.3-30.9-17.5-42.1-26.2-17.4-42-17.5h0ZM122.2,140.9c-21.2,0-41.2-9.9-54.1-26.7s-17.4-38.6-12-59.1,19.9-37.4,39.4-45.7C118-.1,143.9,3.1,163.4,17.9c19.5,14.7,29.7,38.8,26.7,63.1s-18.8,45.1-41.3,54.6c-8.4,3.5-17.4,5.3-26.6,5.3h0Z"/>
            <path class="cls-2" d="M121.6,18.1h1.2c.9,0,1.6.9,1.6,1.6v8.4c0,.9-.7,1.6-1.6,1.6h-1.2c-.9,0-1.6-.9-1.6-1.6v-8.4c0-.8.7-1.6,1.6-1.6Z"/>
            <path class="cls-2" d="M121.6,115.1h1.2c.9,0,1.6.9,1.6,1.6v8.4c0,.9-.7,1.6-1.6,1.6h-1.2c-.9,0-1.6-.9-1.6-1.6v-8.4c0-.8.7-1.6,1.6-1.6Z"/>
            <path class="cls-2" d="M160.2,33.6l.8.8c.6.6.5,1.8,0,2.3l-5.9,5.9c-.6.6-1.7.6-2.3,0l-.8-.8c-.6-.6-.5-1.8,0-2.3l5.9-5.9c.6-.6,1.7-.6,2.3,0Z"/>
            <path class="cls-2" d="M91.6,102.2l.8.8c.6.6.5,1.8,0,2.3l-5.9,5.9c-.6.6-1.7.6-2.3,0l-.8-.8c-.6-.6-.5-1.8,0-2.3l5.9-5.9c.6-.6,1.7-.6,2.3,0Z"/>
            <path class="cls-2" d="M176.5,71.9v1.1c0,.9-.9,1.6-1.6,1.6h-8.4c-.9,0-1.6-.7-1.6-1.6v-1.2c0-.9.9-1.6,1.6-1.6h8.4c.9,0,1.6.8,1.6,1.7Z"/>
            <path class="cls-2" d="M79.5,71.9v1.1c0,.9-.9,1.6-1.6,1.6h-8.4c-.9,0-1.6-.7-1.6-1.6v-1.2c0-.9.9-1.6,1.6-1.6h8.4c.9,0,1.6.8,1.6,1.7Z"/>
            <path class="cls-2" d="M161,110.5l-.8.8c-.6.6-1.8.5-2.3,0l-5.9-5.9c-.6-.6-.6-1.7,0-2.3l.8-.8c.6-.6,1.8-.5,2.3,0l5.9,5.9c.7.6.7,1.6,0,2.3Z"/>
            <path class="cls-2" d="M92.4,41.9l-.8.8c-.6.6-1.8.5-2.3,0l-5.9-5.9c-.6-.6-.6-1.7,0-2.3l.8-.8c.6-.6,1.8-.5,2.3,0l5.9,5.9c.7.6.7,1.6,0,2.3Z"/>
          </g>
          <g>
            <path class="cls-2" d="M118,84.7v8.3h-29.4l14.2-17.9c1.2-1.4,2.2-2.5,3-3.5s1.4-1.8,1.8-2.6c.4-.8.8-1.5.9-2.2.2-.7.3-1.4.3-2.2,0-.5-.1-1-.3-1.6-.2-.6-.5-1.1-.9-1.5-.4-.5-.9-.8-1.5-1.1s-1.4-.4-2.2-.4c-.7,0-1.3.2-1.9.5s-1.1.7-1.5,1.3c-.4.5-.8,1.2-1.1,1.9-.3.7-.4,1.5-.4,2.3h-8.8c0-2.1.4-4.1,1.1-5.8s1.7-3.2,3-4.5,2.7-2.2,4.4-2.9c1.7-.7,3.5-1,5.5-1s3.8.3,5.4,1,3.1,1.6,4.3,2.8c1.2,1.2,2.1,2.5,2.8,4.1.7,1.6,1,3.2,1,5,0,1.5-.1,2.7-.3,3.8-.2,1.1-.5,2.1-1,3.1s-1.2,2.1-2.1,3.2-2,2.4-3.3,3.9l-4.9,6.1h11.9v-.1Z"/>
            <path class="cls-2" d="M151.6,85.3v7.9h-7.8v-7.9h-19v-7.3l16-25.6h10.8v25.1h4.3v7.8h-4.3ZM143.8,61.8l-10.1,15.7h10.1v-15.7Z"/>
          </g>
        </g>
        <path class="cls-1" d="M170.9,426.2h7.6v7.6h-7.6v-7.6ZM155.6,426.2h7.6v7.6h-7.6v-7.6ZM140.4,426.2h7.6v7.6h-7.6v-7.6ZM163.2,418.6h7.6v7.6h-7.6v-7.6ZM155.6,410.9h7.6v7.6h-7.6v-7.6ZM148,418.6h7.6v7.6h-7.6v-7.6ZM140.4,410.9h7.6v7.6h-7.6v-7.6ZM178.5,418.6h7.6v7.6h-7.6v-7.6ZM170.9,395.7h7.6v7.6h-7.6v-7.6ZM163.2,403.3h7.6v7.6h-7.6v-7.6ZM155.6,395.7h7.6v7.6h-7.6v-7.6ZM140.4,395.7h7.6v7.6h-7.6v-7.6ZM132.7,403.3h7.6v7.6h-7.6v-7.6ZM178.5,403.3h7.6v7.6h-7.6v-7.6ZM170.9,380.4h7.6v7.6h-7.6v-7.6ZM163.2,388.1h7.6v7.6h-7.6v-7.6ZM148,388.1h7.6v7.6h-7.6v-7.6ZM140.4,380.4h7.6v7.6h-7.6v-7.6ZM132.7,388.1h7.6v7.6h-7.6v-7.6ZM178.5,388.1h7.6v7.6h-7.6v-7.6ZM170.9,365.2h7.6v7.6h-7.6v-7.6ZM163.2,372.8h7.6v7.6h-7.6v-7.6ZM155.6,365.2h7.6v7.6h-7.6v-7.6ZM148,372.8h7.6v7.6h-7.6v-7.6ZM140.4,365.2h7.6v7.6h-7.6v-7.6ZM132.7,372.8h7.6v7.6h-7.6v-7.6ZM110,365.2h7.6v7.6h-7.6v-7.6ZM102.3,372.8h7.6v7.6h-7.6v-7.6ZM94.7,365.2h7.6v7.6h-7.6v-7.6ZM64.2,365.2h7.6v7.6h-7.6v-7.6ZM79.5,365.2h7.6v7.6h-7.6v-7.6ZM71.8,372.8h7.6v7.6h-7.6v-7.6ZM178.5,372.8h7.6v7.6h-7.6v-7.6ZM125.1,426.2h7.6v7.6h-7.6v-7.6ZM117.6,418.6h7.6v7.6h-7.6v-7.6ZM125.1,410.9h7.6v7.6h-7.6v-7.6ZM117.6,403.3h7.6v7.6h-7.6v-7.6ZM125.1,395.7h7.6v7.6h-7.6v-7.6ZM117.6,388.1h7.6v7.6h-7.6v-7.6ZM125.1,380.4h7.6v7.6h-7.6v-7.6ZM117.6,372.8h7.6v7.6h-7.6v-7.6ZM117.6,357.7h7.6v7.6h-7.6v-7.6ZM125.1,350h7.6v7.6h-7.6v-7.6ZM117.6,342.4h7.6v7.6h-7.6v-7.6ZM125.1,334.8h7.6v7.6h-7.6v-7.6ZM117.6,327.2h7.6v7.6h-7.6v-7.6ZM125.1,319.5h7.6v7.6h-7.6v-7.6ZM117.6,311.9h7.6v7.6h-7.6v-7.6ZM79.5,403.3h15.3v15.3h-15.3v-15.3ZM110,388.1v45.6h-45.8v-45.6h45.8ZM102.3,395.7h-30.5v30.5h30.5v-30.5ZM155.6,327.2h15.3v15.3h-15.3v-15.3ZM186.1,311.9v45.8h-45.6v-45.8h45.6ZM178.5,319.5h-30.5v30.5h30.5v-30.5ZM79.5,327.2h15.3v15.3h-15.3v-15.3ZM110,311.9v45.8h-45.8v-45.8h45.8ZM102.3,319.5h-30.5v30.5h30.5v-30.5Z"/>
      </g>
    </g>
  </g>
</svg>