<?xml version="1.0" encoding="UTF-8"?>
<svg xmlns="http://www.w3.org/2000/svg" version="1.1" viewBox="0 0 500 440">
  <defs>
    <style>
      .cls-1 {
        fill: #fff;
      }
    </style>
  </defs>
  <!-- Generator: Adobe Illustrator 28.7.1, SVG Export Plug-In . SVG Version: 1.2.0 Build 142)  -->
  <g>
    <g id="_レイヤー_1" data-name="レイヤー_1">
      <g>
        <path class="cls-1" d="M161.7,439c-31.7,0-57.5-25.79-57.5-57.5V58.5c0-31.7,25.79-57.5,57.5-57.5h176.6c31.7,0,57.5,25.79,57.5,57.5v323.01c0,31.7-25.79,57.5-57.5,57.5h-176.6ZM161.7,14.99c-23.99,0-43.51,19.52-43.51,43.51v323.01c0,23.99,19.52,43.51,43.51,43.51h176.6c23.99,0,43.51-19.52,43.51-43.51V58.5c0-23.99-19.52-43.51-43.51-43.51h-176.6Z"/>
        <rect class="cls-1" x="194.77" y="34.54" width="12.89" height="12.89"/>
        <rect class="cls-1" x="227.37" y="34.54" width="45.49" height="12.89"/>
        <path class="cls-1" d="M222.23,211.26c0-5.39,4.37-9.77,9.77-9.77s9.77,4.37,9.77,9.77-4.37,9.77-9.77,9.77-9.77-4.37-9.77-9.77ZM232.08,241.03l10.13,12.14c1.03,1.23,2.92,1.23,3.95,0l21.55-25.83c1.03-1.23,2.92-1.23,3.95,0l13.81,16.56v-49.88h-70.65v63.01l13.34-16c1.02-1.23,2.91-1.23,3.94,0h0ZM333.65,316.62c0,4.54-3.7,8.24-8.24,8.24h-150.58c-4.54,0-8.24-3.7-8.24-8.24v-178.62c0-4.54,3.7-8.24,8.24-8.24h150.58c4.54,0,8.24,3.7,8.24,8.24v178.62ZM336.17,114.26h-172.11c-5.84,0-10.6,4.76-10.6,10.6v204.9c0,5.84,4.76,10.6,10.6,10.6h172.11c5.84,0,10.6-4.76,10.6-10.6V124.86c0-5.84-4.76-10.6-10.6-10.6ZM203.01,192.84c0-5.84,4.76-10.6,10.6-10.6h73.01c5.84,0,10.6,4.76,10.6,10.6v68.93c0,5.84-4.76,10.6-10.6,10.6h-73.01c-5.84,0-10.6-4.76-10.6-10.6v-68.93ZM178.36,313.08h143.52v-171.56h-143.52v171.56Z"/>
      </g>
    </g>
  </g>
</svg>