<?xml version="1.0" encoding="UTF-8"?>
<svg xmlns="http://www.w3.org/2000/svg" version="1.1" viewBox="0 0 49 86">
  <defs>
    <style>
      .cls-1 {
        fill: #ffeb73;
      }
    </style>
  </defs>
  <!-- Generator: Adobe Illustrator 28.7.1, SVG Export Plug-In . SVG Version: 1.2.0 Build 142)  -->
  <g>
    <g id="_レイヤー_1" data-name="レイヤー_1">
      <g>
        <path class="cls-1" d="M24.9,85.8c1-.1,1.9-.5,2.6-1.1l19.5-16.7c1-.8,1.6-1.9,1.7-3.2s-.3-2.5-1.1-3.4c-.8-1-2-1.5-3.2-1.6-1.3-.1-2.5.4-3.4,1.2l-16.5,14-16.5-14.1c-.9-.8-2.2-1.3-3.4-1.2-1.3.1-2.4.7-3.2,1.6-.8,1-1.2,2.2-1.1,3.5.1,1.2.7,2.4,1.7,3.2l19.5,16.7c.9.8,2.2,1.2,3.4,1.1Z"/>
        <circle class="cls-1" cx="24.5" cy="47.4" r="6.8"/>
        <circle class="cls-1" cx="24.5" cy="27.2" r="6.8"/>
        <circle class="cls-1" cx="24.5" cy="7.1" r="6.8"/>
      </g>
    </g>
  </g>
</svg>