<?xml version="1.0" encoding="UTF-8"?>
<svg xmlns="http://www.w3.org/2000/svg" version="1.1" viewBox="0 0 86 49">
  <defs>
    <style>
      .cls-1 {
        fill: #ffeb73;
      }
    </style>
  </defs>
  <!-- Generator: Adobe Illustrator 28.7.1, SVG Export Plug-In . SVG Version: 1.2.0 Build 142)  -->
  <g>
    <g id="_レイヤー_1" data-name="レイヤー_1">
      <g>
        <path class="cls-1" d="M85.8,24.1c-.1-1-.5-1.9-1.1-2.6L68,2c-.8-1-1.9-1.6-3.2-1.7s-2.5.3-3.4,1.1c-1,.8-1.5,2-1.6,3.2-.1,1.3.4,2.5,1.2,3.4l14,16.5-14.1,16.5c-.8.9-1.3,2.2-1.2,3.4.1,1.3.7,2.4,1.6,3.2,1,.8,2.2,1.2,3.5,1.1,1.2-.1,2.4-.7,3.2-1.7l16.7-19.5c.8-.9,1.2-2.2,1.1-3.4Z"/>
        <circle class="cls-1" cx="47.4" cy="24.5" r="6.8"/>
        <circle class="cls-1" cx="27.2" cy="24.5" r="6.8"/>
        <circle class="cls-1" cx="7.1" cy="24.5" r="6.8"/>
      </g>
    </g>
  </g>
</svg>