<?xml version="1.0" encoding="UTF-8"?>
<svg xmlns="http://www.w3.org/2000/svg" version="1.1" viewBox="0 0 500 440">
  <defs>
    <style>
      .cls-1 {
        fill: #8aeddd;
      }

      .cls-2 {
        fill: #ffb9e6;
      }

      .cls-3 {
        fill: #ffeb73;
      }

      .cls-4 {
        fill: #fff;
      }
    </style>
  </defs>
  <!-- Generator: Adobe Illustrator 28.7.1, SVG Export Plug-In . SVG Version: 1.2.0 Build 142)  -->
  <g>
    <g id="_レイヤー_1" data-name="レイヤー_1">
      <g>
        <g>
          <path class="cls-4" d="M417.9,189.3h-28.2c-7.8,0-14.1-6.3-14.1-14.1s6.3-14.1,14.1-14.1h28.2c7.8,0,14.1,6.3,14.1,14.1s-6.3,14.1-14.1,14.1ZM417.9,231.6h-28.2c-7.8,0-14.1-6.3-14.1-14.1s6.3-14.1,14.1-14.1h28.2c7.8,0,14.1,6.3,14.1,14.1s-6.3,14.1-14.1,14.1ZM417.9,273.8h-28.2c-7.8,0-14.1-6.3-14.1-14.1s6.3-14.1,14.1-14.1h28.2c7.8,0,14.1,6.3,14.1,14.1s-6.3,14.1-14.1,14.1ZM417.9,316h-28.2c-7.8,0-14.1-6.3-14.1-14.1s6.3-14.1,14.1-14.1h28.2c7.8,0,14.1,6.3,14.1,14.1s-6.3,14.1-14.1,14.1ZM436.3,196.4c8.9-7.7,12-20.1,7.9-31.1s-14.6-18.2-26.4-18.2h-21.1V55.6c0-27.2-22.1-49.2-49.3-49.3h-154.7c-27.2,0-49.2,22.1-49.3,49.3v39.1c-4.3-2.6-9.1-3.9-14.1-3.9h-21.1c-3.9,0-7,3.1-7,7v222.4l-47.2,47.2,10,10,49.3-49.3c1.3-1.3,2-3.1,2-5V104.9h14.1c7.8,0,14.1,6.3,14.1,14.1v56.3c0,1.3.3,2.5,1,3.6l7.1,11.8c8.5,14.2,13,30.5,13,47.1v10.2c0,12.8-3.4,25.3-10.1,36.2l12.1,7.3c7.9-13.2,12-28.2,12-43.6v-10.2c0-19.1-5.2-37.9-15.1-54.3l-6.1-10.1V55.6c0-19.4,15.7-35.2,35.2-35.2h154.9c9.3,0,18.3,3.7,24.9,10.3s10.3,15.6,10.3,24.9v92.5c-10.1,2.6-18,10.5-20.4,20.7s1.1,20.8,9,27.6c-6.2,5.3-9.7,13-9.7,21.1s3.6,15.8,9.7,21.1c-6.2,5.3-9.7,13-9.7,21.1s3.6,15.8,9.7,21.1c-7.9,6.8-11.4,17.5-9,27.6,2.4,10.2,10.3,18.1,20.4,20.7v8c0,9.3-3.7,18.3-10.3,24.9-6.6,6.6-15.6,10.3-24.9,10.3h-154.8c-19.4,0-35.2-15.7-35.2-35.2v-35.1h-14.1v35.2c0,27.2,22.1,49.2,49.3,49.3h88.6l-37.3,37.2,10,10,47.2-47.2h46.4c27.2,0,49.2-22.1,49.3-49.3v-7h21.1c11.7,0,22.3-7.2,26.4-18.2s1-23.4-7.9-31.1c6.2-5.3,9.7-13,9.7-21.1s-3.6-15.8-9.7-21.1c6.2-5.3,9.7-13,9.7-21.1-.1-8.2-3.7-15.9-9.9-21.2h0Z"/>
          <rect class="cls-4" x="220.8" y="34.5" width="14.1" height="14.1"/>
          <rect class="cls-4" x="249" y="34.5" width="42.2" height="14.1"/>
        </g>
        <g>
          <g>
            <path class="cls-1" d="M288.95,209.87l.65-3.7c-.16-.13-.3-.28-.48-.4-2.32-1.54-5.45-.91-7,1.41l-32.37,48.68c-1.54,2.32-.91,5.45,1.41,7,.86.57,1.83.84,2.79.84,1.63,0,3.24-.79,4.21-2.25l26.57-39.95,4.23-11.63Z"/>
            <path class="cls-2" d="M323.24,263.7c-1.58,0-3.14-.74-4.12-2.13l-26.7-37.76c-1.61-2.28-1.07-5.42,1.21-7.03,2.28-1.61,5.43-1.07,7.03,1.21l26.7,37.76c1.61,2.28,1.07,5.42-1.21,7.03-.88.63-1.9.93-2.91.93Z"/>
          </g>
          <g>
            <path class="cls-4" d="M192.82,165.25c.1.27.35.45.63.46.36.01.73.02,1.1.02,3.96,0,8.49-.82,13.49-2.45,5.47-1.78,9.92-4,13.23-6.61.22-.18.32-.47.24-.74-.07-.23-1.66-5.73-4.22-10.17-2.81-4.87-7.89-5.92-16.01-3.28-8.11,2.64-11.61,6.47-11.02,12.07.54,5.1,2.48,10.48,2.56,10.71Z"/>
            <path class="cls-4" d="M210.25,170.1c9.19-2.99,16.61-7.73,18.22-9.86,1.81-2.39,1.57-4.3.58-5.06-.78-.6-2.09-.51-3.28,1.02-2.29,2.94-9.9,7.2-16.96,9.49-7.06,2.29-15.71,3.32-19.3,2.29-1.86-.53-2.97.17-3.25,1.11-.35,1.19.57,2.87,3.44,3.75.68.21,1.81.32,3.28.32,4.01,0,10.53-.87,17.26-3.05Z"/>
            <path class="cls-4" d="M209.55,190.9c.15.1.32.15.48.15.45,0,.94-.32,1.42-.63.07-.04.13-.09.18-.12.19.16.52.33,1.03.31.64-.02,1.27-.45,1.78-.8.13-.09.24-.17.33-.22.05,0,.1.02.16.03.39.08.99.2,1.53.02.54-.18,1.09-.68,1.45-1.01.03-.03.06-.06.09-.08.1,0,.26,0,.39.02.65.04,1.45.08,2.01-.29.47-.32.61-.7.64-1.02.05,0,.11,0,.16,0,.78-.04,1.6-.08,1.83-.73.14-.39.26-.72-3.98-5.98-.22-.27-.6-.33-.88-.14-.01,0-1.53.98-4,1.78-2.47.8-4.27.91-4.28.91-.34.02-.62.29-.63.63-.34,6.74-.05,6.95.29,7.18Z"/>
            <path class="cls-4" d="M227.99,192.73c-4.27,2.34-7.03,6.19-7.92,7.55-1.52-.58-6.03-2.07-10.85-1.45l-.53.06c-.96.11-1.78.2-2.25.87-.41.59-.43,1.45-.06,2.98.49,2.04,1.89,4.96,2.92,7.09.53,1.1.98,2.05,1.13,2.49.21.64.58,1.07,1.11,1.26.2.08.43.12.67.12.68,0,1.51-.3,2.56-.93,4.05-2.4,6.06-6.31,6.77-7.99,1.56.94,5.48,2.92,10.18,2.48,1.65-.15,2.63-.55,3.09-1.24.31-.47.36-1.03.15-1.68-.14-.44-.33-1.48-.55-2.68-.43-2.33-1.01-5.51-1.81-7.45-.6-1.45-1.12-2.14-1.8-2.38-.78-.27-1.5.15-2.33.62l-.46.26Z"/>
            <path class="cls-4" d="M229.03,225.08c-.18-.12-.4-.15-.61-.09-.21.07-21.06,6.69-27.42,4.04-2.72-1.13-3.99-5.58-2.89-10.13.18-.75-.28-1.08-.42-1.16-1.07-.62-2.86,1.06-2.93,1.13-.71.67-4.26,4.27-4.78,9.47-.18,1.84.73,4.92,3.18,7.34,1.74,1.73,4.78,3.63,9.7,3.63.71,0,1.47-.04,2.26-.13,13.44-1.46,24.07-9.1,24.18-9.18.2-.14.3-.37.29-.61l-.25-3.78c-.01-.22-.13-.41-.31-.53Z"/>
            <path class="cls-4" d="M236.13,221.46c-.69-5.18-1.81-7.41-1.86-7.5-.13-.26-.41-.42-.71-.4l-3.58.26c-.23.02-.44.14-.57.34s-.15.44-.07.65c.01.04,1.44,3.94,1.97,7.13.38,2.33.37,6.49.36,6.53,0,.22.1.44.27.58.13.11.3.16.46.16.05,0,.11,0,.16-.02l2.22-.49c.16-.03.3-.12.4-.24.16-.19,1.59-2.01.93-7Z"/>
          </g>
          <g>
            <path class="cls-4" d="M322.27,232.84h-72.4c-3.19,0-5.77-2.58-5.77-5.77s2.58-5.77,5.77-5.77h72.4c3.19,0,5.77,2.58,5.77,5.77s-2.58,5.77-5.77,5.77Z"/>
            <path class="cls-4" d="M315.12,153.09h-62.63c-7.26,0-13.16,5.9-13.16,13.16v42.6c0,3.08,2.42,5.61,5.49,5.76.14,0,3.51.17,7.67.17,3.19,0,5.77-2.58,5.77-5.77s-2.58-5.77-5.77-5.77c-.14,0-.27,0-.41,0-.67,0-1.21-.55-1.21-1.22h0v-35.77c0-.88.74-1.62,1.63-1.62h62.63c.88,0,1.62.74,1.62,1.62v35.77h0c0,.67-.54,1.22-1.21,1.22-.14,0-.27,0-.41,0-3.19,0-5.77,2.58-5.77,5.77s2.58,5.77,5.77,5.77c4.16,0,7.53-.16,7.67-.17,3.07-.15,5.49-2.68,5.49-5.76v-42.6c0-7.26-5.9-13.16-13.16-13.16Z"/>
            <path class="cls-4" d="M300.7,174.23h-27.56v-2.63c0-3.19-2.58-5.77-5.77-5.77s-5.77,2.58-5.77,5.77v36.92c0,3.19,2.58,5.77,5.77,5.77h21.26c.58.01.97.75.81,1.34h0s-11.38,31.5-11.38,31.5h0c-.36.57-1.12.73-1.68.36h0s-6.67-3.73-6.67-3.73c-2.78-1.56-6.29-.56-7.85,2.22-1.56,2.78-.56,6.29,2.22,7.85l16.22,9.08c.87.49,1.84.74,2.82.74.68,0,1.36-.12,2.01-.36,1.59-.59,2.83-1.85,3.41-3.44l17.9-49.36c.64-1.77.38-3.74-.7-5.28-1.08-1.54-2.84-2.46-4.72-2.46h-26.66c-.67,0-1.21-.54-1.22-1.21v-16.09c.03-.61.51-1.09,1.11-1.14h23.69c.63.04,1.14.56,1.14,1.2h0s0,1.18,0,1.18c0,2.79,2.26,5.05,5.05,5.05s5.05-2.26,5.05-5.05v-2.39c0-5.66-3.73-10.09-8.48-10.09Z"/>
          </g>
          <g>
            <circle class="cls-3" cx="285.81" cy="193.78" r="6.13"/>
            <polygon class="cls-3" points="334.98 176.41 338.15 187.77 348.43 181.98 342.64 192.26 354 195.43 342.64 198.6 348.43 208.88 338.15 203.09 334.98 214.45 331.81 203.09 321.53 208.88 327.32 198.6 315.96 195.43 327.32 192.26 321.53 181.98 331.81 187.77 334.98 176.41"/>
            <path class="cls-3" d="M314.98,193.66c-5.24.9-5.87,1.63-6.65,7.68-.78-6.05-1.41-6.78-6.65-7.68,5.24-.9,5.87-1.63,6.65-7.68.78,6.05,1.41,6.78,6.65,7.68Z"/>
          </g>
        </g>
      </g>
    </g>
  </g>
</svg>